<?xml version="1.0" encoding="UTF-8"?>
<!-- Generator: visioncortex VTracer 0.6.12 -->
<svg version="1.1" xmlns="http://www.w3.org/2000/svg" width="823" height="818">
<path d="M0 0 C271.59 0 543.18 0 823 0 C823 269.94 823 539.88 823 818 C551.41 818 279.82 818 0 818 C0 548.06 0 278.12 0 0 Z " fill="#FEFEFE" transform="translate(0,0)"/>
<path d="M0 0 C6.6 2.31 13.2 4.62 20 7 C27.8021 13.6875 30 15.801 30 26 C25 34 25 34 10 48 C0.276 62.586 -0.605 73.115 4 90 C10 100 10 100 13 103 C13 103.66 13 104.32 13 105 C14.32 105.66 15.64 106.32 17 107 C19.97 108.98 22.94 110.96 26 113 C45.9361 121.3067 59.9849 120.409 79 109 C90.0893 97.9107 92.8178 90.3682 94 75 C92.35 69.39 90.7 63.78 89 58 C89 46.5511 89.3577 44.202 98 37 C119.8162 28.2735 172.1205 54.0904 188 66 C200.8189 95.9107 173.5582 136.2633 164 166 C157.75 188.5 157.75 188.5 163 199 C172.158 206.3264 175.3659 204.9024 188 204 C206.1512 204 215.8876 208.3735 228 222 C235.9838 239.5643 235.8061 253.3878 227 271 C213.4711 286.0321 203.97 289.6687 184 291 C169.6031 287.4008 161.9096 281.9322 150 273 C140.0994 268.7569 135.6276 269.1862 126 274 C112.0288 293.5597 109.1482 319.0505 102 342 C95.1742 349.9635 94.1717 351 84 351 C78.72 349.02 73.44 347.04 68 345 C53.81 340.38 39.62 335.76 25 331 C23.68 330.34 22.36 329.68 21 329 C34.6168 345.3401 63.9209 347.889 84 354 C102.6092 376.331 79.2777 407.1669 71 432 C71 447 71 447 79 453 C85.5659 455.1886 92.3815 454.6546 99 453 C122.3349 453 136.1224 461.2039 148 481 C153.9532 500.8439 150.9747 514.5347 139 531 C122.2941 545.3194 106.6747 547.8916 86 541 C75 534 75 534 67 528 C57.354 523.866 52.152 523.7703 43 529 C34.656 545.688 30.5426 564.1845 25 582 C18.5398 602.6726 18.5398 602.6726 7 607 C-12.7286 605.0271 -31.2307 596.3895 -50 590 C-52.475 589.175 -52.475 589.175 -65 585 C-74.986 576.2622 -75 576.1082 -75 563 C-70.1605 553.3209 -65.9088 550.289 -57 543 C-43.6994 529.6994 -41 519.289 -41 501 C-48.0123 478.2101 -59.4256 465.8936 -83 460 C-104.852 460 -116.4624 463.3856 -131 480 C-139.9299 497.8597 -139.4331 511.7007 -133 531 C-133 545.5 -133 545.5 -142 553 C-169.4618 563.9847 -201.705 541.2032 -228 532 C-238.2158 523.2436 -239 519.6168 -239 506 C-223 452 -223 452 -219 439 C-219 430 -219 430 -224 424 C-233.2472 419.3764 -244.6613 423 -255 423 C-274.809 415.7967 -286.2276 406.3172 -293 386 C-296.084 364.4121 -289.1539 351.1539 -274 336 C-254.055 325.2604 -238.3689 323.6839 -218 335 C-216.185 336.32 -216.185 336.32 -207 343 C-201.143 344.9523 -196.5644 344.2258 -191 342 C-183.5728 323.432 -178.5926 303.0149 -173 284 C-165.125 275 -165.125 275 -156 275 C-131.9835 282.615 -107.9781 290.2651 -84 298 C-73 298 -73 298 -71 297 C-74.63 296.34 -78.26 295.68 -82 295 C-158.528 270.1801 -158.528 270.1801 -163 259 C-163 234.8224 -150.9811 212.1478 -144 189 C-144 176.8 -144 176.8 -152 172 C-161 172 -161 172 -165 173 C-185.0548 173 -194.9411 168.9245 -208 154 C-218.327 133.3461 -216.872 115.7867 -205 96 C-189.3248 80.3248 -177.5343 76 -156 76 C-144.1618 79.9461 -137.8283 84.6288 -128 92 C-121.2592 95.3704 -115.7517 93.451 -110 90 C-98.0551 63.124 -91.623 34.1184 -83 6 C-68.3267 -38.0199 -34.9842 -12.7215 0 0 Z " fill="#79BF4D" transform="translate(329,50)"/>
<path d="M0 0 C14.2393 14.2393 16 20.9405 16 41 C12.2424 51.3333 7.7721 57.5349 1 66 C-2.2312 72.4623 0.7794 76.3639 4 82 C21.0497 89.5776 39.2206 94.3429 57 100 C96 113 96 113 99 122 C99 146.4018 82.9361 182.591 76 205 C76 214 76 214 80 219 C84 221 84 221 102 223 C121.6121 230.1317 132.8595 240.4378 138 261 C138 282.5782 131.4551 297.4656 113 309 C93.7607 315.4131 80.0692 314.4983 64 302 C61.03 299.36 58.06 296.72 55 294 C48.2592 290.6296 42.7517 292.549 37 296 C31.2211 312.181 26.1516 328.6084 21 345 C14.1286 355.3071 11.2063 356 -1 356 C-51 340 -51 340 -57 338 C-66 338 -66 338 -71 342 C-73 346 -73 346 -74 364 C-80.5752 383.7257 -91.9019 394.2577 -112 400 C-139.3626 400 -155.0376 394.8088 -172 373 C-177.9893 357.4278 -178.7409 346.7875 -173 331 C-170.03 327.37 -167.06 323.74 -164 320 C-163 318 -163 318 -163 310 C-173.5402 294.1897 -222.5841 285.6484 -240 280 C-249.6773 271.7052 -249 272.2439 -249 259 C-244.71 245.47 -240.42 231.94 -236 218 C-234.35 212.72 -232.7 207.44 -231 202 C-224.1132 193.7358 -224.1132 193.7358 -214 195 C-210.37 197.64 -206.74 200.28 -203 203 C-186.1271 214.2486 -173.094 217.4653 -153 213 C-134.0176 203.5088 -122.6425 191.8913 -118 171 C-118 148.7764 -123.1444 134.9827 -140 120 C-154.8465 112.5768 -164.6043 109.6578 -181 112 C-194 112 -194 112 -198 107 C-206.2974 82.1077 -187.4382 54.5955 -178 31 C-161.2401 17.0334 -128.5023 38.4035 -115 43 C-83.5 53.5 -83.5 53.5 -73 49 C-69 42 -69 42 -69 20 C-56.701 -10.7476 -27.1899 -16.3139 0 0 Z " fill="#ECC71D" transform="translate(604,386)"/>
<path d="M0 0 C6.6 2.31 13.2 4.62 20 7 C27.8021 13.6875 30 15.801 30 26 C25 34 25 34 10 48 C0.276 62.586 -0.605 73.115 4 90 C10 100 10 100 13 103 C13 103.66 13 104.32 13 105 C14.32 105.66 15.64 106.32 17 107 C19.97 108.98 22.94 110.96 26 113 C45.9361 121.3067 59.9849 120.409 79 109 C90.0893 97.9107 92.8178 90.3682 94 75 C92.35 69.39 90.7 63.78 89 58 C89 46.5511 89.3577 44.202 98 37 C119.8162 28.2735 172.1205 54.0904 188 66 C200.8189 95.9107 173.5582 136.2633 164 166 C157.75 188.5 157.75 188.5 163 199 C172.158 206.3264 175.3659 204.9024 188 204 C206.1512 204 215.8876 208.3735 228 222 C235.9838 239.5643 235.8061 253.3878 227 271 C213.4711 286.0321 203.97 289.6687 184 291 C169.6031 287.4008 161.9096 281.9322 150 273 C140.0994 268.7569 135.6276 269.1862 126 274 C112.0288 293.5597 109.1482 319.0505 102 342 C95.1742 349.9635 94.1717 351 84 351 C78.72 349.02 73.44 347.04 68 345 C53.81 340.38 39.62 335.76 25 331 C20 329 20 329 16 322 C16 303.9625 26.0327 298.3463 39 287 C53.2674 270.3547 54.4408 254.7237 50 234 C38.6256 213.147 25.0834 203.2955 2 197 C-22.8324 197 -40.1678 201.0638 -57 220 C-67.0096 240.0192 -66.0836 254.7491 -59 276 C-59 286.9379 -59.686 289.3488 -68 296 C-90.9917 296 -144.4189 283.8973 -161 264 C-170.2479 240.8801 -147.8063 201.6209 -144 189 C-144 176.8 -144 176.8 -152 172 C-161 172 -161 172 -165 173 C-185.0548 173 -194.9411 168.9245 -208 154 C-218.327 133.3461 -216.872 115.7867 -205 96 C-189.3248 80.3248 -177.5343 76 -156 76 C-144.1618 79.9461 -137.8283 84.6288 -128 92 C-121.2592 95.3704 -115.7517 93.451 -110 90 C-98.0551 63.124 -91.623 34.1184 -83 6 C-68.3267 -38.0199 -34.9842 -12.7215 0 0 Z " fill="#D90F05" transform="translate(329,50)"/>
<path d="M0 0 C13.6955 13.6955 17 25.0221 17 44 C12.598 60.1407 5.6165 67.4863 -7 78 C-9.9317 83.8634 -8.0192 87.9681 -5 93 C11.1871 100.1942 28.2366 105.2759 45 111 C68.5644 119.3168 68.5644 119.3168 74 132 C74 152.0555 64.1124 170.8987 58 190 C53.71 203.53 49.42 217.06 45 231 C41 238 41 238 33 243 C18.1486 243 17.3447 241.2102 6 231 C-10.6782 220.3866 -21.955 218.6517 -41 225 C-60.8267 238.2178 -65 249.9375 -65 274 C-58.0913 294.7261 -47.9891 304.7527 -27 310 C-18 310 -18 310 -11 308 C0.6586 308 4.3599 309.0865 12 318 C17.9926 341.9705 -0.1267 373.3484 -8 395 C-25.1586 409.2988 -35.0802 396.5252 -60 388 C-74.19 383.38 -88.38 378.76 -103 374 C-109 370.4 -109 370.4 -109 363 C-106.36 360.03 -103.72 357.06 -101 354 C-90.4627 337.1404 -91.4499 322.3402 -98 304 C-114.0348 283.3839 -128.5263 279 -154 279 C-172.4523 284.5357 -185.1169 294.4675 -190 314 C-190 324 -190 324 -189 333 C-193.7662 340.9437 -193.9952 340 -204 340 C-278.3711 315.7862 -278.3711 315.7862 -283 310 C-286.3461 283.231 -276.4297 255.3346 -259 235 C-245.04 230.3467 -235.3714 241.2214 -225 249 C-205.1674 256.9331 -187.0921 256.0614 -169 244 C-152.6965 230.9572 -150 215.3538 -150 196 C-152.8005 184.7979 -155.7139 177.2861 -164 169 C-164 168.34 -164 167.68 -164 167 C-164.66 166.67 -164.66 166.67 -168 165 C-169.32 164.175 -169.32 164.175 -176 160 C-195.2857 154.8571 -195.2857 154.8571 -206 157 C-218 157 -218 157 -224 153 C-233.1283 134.7433 -211.897 94.1653 -210 88 C-197 45 -197 45 -195 38 C-187.3906 28.4882 -185.458 30 -172 30 C-118 49 -118 49 -105 54 C-98 54 -98 54 -92 50 C-87.2579 40.5159 -91.0408 32.6174 -94 23 C-94 2.969 -89.2756 -5.6347 -72 -16 C-44.8513 -23.7568 -22.4056 -17.4266 0 0 Z " fill="#2D91D5" transform="translate(719,92)"/>
<path d="M0 0 C0.33 0 0.66 0 1 0 C-1.7928 27.9281 -13.6927 54.1902 -22 81 C-29.8 107 -29.8 107 -25 115 C-18.1804 118.4098 -11.2816 117.4563 -4 116 C11.0165 116 20.7322 119.8215 33 128 C33 128.66 33 129.32 33 130 C33.99 130.33 34.98 130.66 36 131 C48.598 150.5968 50.4436 163.4475 44 186 C28.8063 209.8758 14.7414 216 -13 216 C-26.4876 211.85 -34.542 206.0206 -46 198 C-52.7823 194.6088 -57.6497 195.1898 -64 199 C-79.3239 219.4319 -88.1519 245.7845 -85 271 C-75.4708 283.7056 -18.54 300 2 300 C6 297 6 297 7 290 C6.67 288.35 6.34 286.7 6 285 C6 267.0359 12.9741 257.7233 26 246 C46.2084 235.8958 64.1208 236.956 84 248 C100.3749 262.7374 105 272.8506 105 295 C101.8408 307.6369 97.3773 314.2265 89 324 C89 330 89 330 92 333 C117.925 341.8886 143.94 350.5154 170 359 C171.32 359.495 171.32 359.495 178 362 C154.8122 380.5503 114.4091 348.1364 87 339 C81 331.8 81 331.8 81 323 C85 317 85 317 92 309 C98.183 293.5424 98.6903 283.0568 92 267 C76.3726 249.6362 66.7433 247 44 247 C28.3049 252.7073 20.2599 259.3503 14 275 C14 282.26 14 289.52 14 297 C8.6667 306.3333 8.6667 306.3333 2 308 C-23.0895 308 -56.5742 291.0141 -80 283 C-90 282 -90 282 -95 286 C-118.7931 353.4138 -118.7931 353.4138 -113 365 C-108.8793 369.1207 -97.6998 365.8143 -92 365 C-66.5448 365 -52.0909 375.7273 -39 397 C-33.0277 417.9032 -34.0817 431.2829 -45 450 C-61.5423 466.5423 -72.1432 471 -95 471 C-110.036 466.3735 -117.3888 461.7009 -130 452 C-135 450 -135 450 -142 451 C-154.851 463.851 -158.5835 490.6462 -163 505 C-163.99 507.97 -164.98 510.94 -166 514 C-166.33 516.97 -166.66 519.94 -167 523 C-167.33 523 -167.66 523 -168 523 C-168 518.71 -168 514.42 -168 510 C-168.99 510.33 -169.98 510.66 -171 511 C-159 451 -159 451 -143 443 C-128.4635 443 -122.6535 448.2599 -111 457 C-90.8613 465.3911 -77.2823 464.248 -58 453 C-45.0391 438.419 -43 429.3389 -43 410 C-49.6334 390.0998 -60.2915 378.1771 -81 373 C-94 373 -94 373 -98 374 C-114.5 374 -114.5 374 -122 365 C-127.7958 353.4085 -116.4027 330.4751 -114 323 C-102.125 283.8125 -102.125 283.8125 -108 275 C-121.5641 269.1868 -135.9216 265.4246 -150 261 C-167 255 -167 255 -172 250 C-172 249.34 -172 248.68 -172 248 C-150.7779 254.3666 -129.6809 261.0458 -109 269 C-100.3072 269 -97.4265 267.7831 -92 261 C-87.05 245.16 -82.1 229.32 -77 213 C-70.6 193.8 -70.6 193.8 -59 188 C-44.5828 188 -38.4634 194.182 -27 203 C-8.3214 210.7828 3.9998 210.0001 22 201 C37.8385 187.1413 40 175.4396 40 155 C33.195 138.668 25.2557 127.6511 7 124 C-1.6731 124 -10.349 124.3821 -19 125 C-27.7474 121.7197 -31.4894 118.7764 -35 110 C-35 87.1298 -19.0607 50.4809 -13 31 C-10.03 21.43 -7.06 11.86 -4 2 C-2.68 2 -1.36 2 0 2 C0 1.34 0 0.68 0 0 Z " fill="#F4F5EC" transform="translate(522,131)"/>
<path d="M0 0 C24.7777 7.743 49.3704 15.7901 74 24 C77.3 24.33 80.6 24.66 84 25 C62.784 40.912 20.4473 12.5031 -3 5 C-2.01 3.35 -1.02 1.7 0 0 Z " fill="#F4F2E4" transform="translate(176,321)"/>
</svg>
