<svg xmlns="http://www.w3.org/2000/svg" version="1.1" style="display: block;" viewBox="0 0 2048 2043" preserveAspectRatio="xMidYMid meet">
<path transform="translate(0,0)" fill="rgb(0,0,0)" d="M 0 0 L 2048 0 L 2048 2043 L 0 2043 L 0 0 z"/>
<path transform="translate(0,0)" fill="rgb(220,13,3)" d="M 506.275 306.311 C 515.916 284.262 519.314 269.803 526.43 247.174 C 541.402 199.559 555.646 151.76 570.54 104.124 C 577.033 83.3581 583.433 59.5019 591.341 39.5258 C 596.444 29.1058 612.188 20.6565 622.383 16.9657 C 645.91 8.44851 676.173 25.7093 698.536 32.9669 C 712.589 37.5275 726.993 42.7569 741.067 47.6454 L 809.63 71.44 C 833.741 79.8602 867.2 87.0695 876.025 114.842 C 888.297 153.458 851.404 169.853 829.636 193.211 C 819.301 204.301 813.45 212.397 806.528 226.226 C 796.971 268.467 796.342 289.161 820.619 328.124 C 825.867 336.547 832.744 341.673 836.805 348.819 C 839.024 350.589 841.671 351.396 844.563 353.609 C 874.314 376.378 911.047 390.748 948.921 384.675 C 979.782 379.727 1010.47 360.797 1028.92 335.464 C 1039.06 321.291 1049.9 290.967 1047.96 273.448 C 1047.23 266.811 1043.35 254.623 1042.04 246.852 L 1041.89 245.948 C 1036.74 234.835 1032.72 225.009 1031.91 212.585 C 1030.79 195.457 1045.65 164.572 1065.18 164.855 C 1070.47 163.125 1073.59 161.71 1078.55 159.417 C 1098.1 163.859 1115.17 170.625 1134.02 176.916 C 1173.02 189.808 1211.31 204.241 1249.82 218.52 C 1255.83 220.752 1266.18 222.062 1271.78 224.964 C 1291.01 234.922 1308.12 249.545 1307.04 273.337 C 1306.95 275.348 1305.33 280.034 1304.97 282.802 C 1309.81 285.741 1310.1 285.152 1315.29 282.95 C 1318.37 275.765 1329.45 264.353 1336.86 261.676 C 1371.36 249.205 1405.49 270.92 1437.99 281.14 C 1475.21 292.846 1512.4 308.163 1549.51 320.564 C 1560.58 324.264 1563.23 326.689 1576.33 321.942 C 1584.93 319.391 1590.62 310.672 1595.64 303.589 C 1597.37 260.376 1573.34 241.228 1585.92 198.531 C 1589.57 183.228 1597.46 171.329 1609.02 160.503 C 1629.55 141.285 1671.45 123.572 1699.72 125.535 C 1785.21 131.474 1885.81 187.827 1882.87 284.934 C 1882.09 310.846 1869.58 344.141 1849.87 361.383 C 1830.1 379.002 1815.6 381.781 1812.62 409.686 C 1815.21 414.477 1816.12 417.714 1817.76 422.822 C 1830.37 432.316 1843.28 438.779 1858.53 443.238 C 1891.09 452.619 1924.15 466.359 1956.32 476.264 C 1990.76 486.869 2028.23 497.493 2033.76 539.466 C 2035.99 556.47 2020.71 582.681 2017.18 599.893 C 2014.2 614.446 2007.84 629.049 2003.48 643.223 C 1993.34 676.63 1982.97 709.965 1972.36 743.223 C 1966.13 762.926 1959.98 784.589 1952.1 803.298 C 1947.13 815.103 1928.78 827.1 1916.56 829.16 C 1907.43 830.7 1907.81 831.377 1899.92 826.562 L 1897.86 826.748 L 1896.01 829.101 C 1875.49 826.418 1853.29 795.903 1836.38 785.581 C 1823.63 777.799 1808.25 773.279 1794.05 768.515 C 1769.69 767.611 1761.96 769.154 1739.21 774.38 C 1637.52 812.747 1633.44 951.311 1732.52 996.889 C 1764.73 1011.71 1784.91 1002.42 1817.96 1000.82 C 1819.51 999.153 1819.29 999.144 1821.38 998.243 C 1839 1000.8 1850.67 1003.48 1861.92 1018.76 C 1879.81 1043.05 1866.9 1071.73 1858.97 1096.87 C 1851.44 1121.27 1843.66 1145.59 1835.62 1169.83 C 1829.83 1187.7 1824.56 1206.24 1818.24 1223.91 C 1815 1232.96 1806.52 1243.16 1797.09 1246.31 C 1786.09 1250.78 1782.37 1250.83 1771.74 1254.13 C 1788.51 1271.44 1800.51 1284.99 1793.08 1313.05 C 1774.67 1382.52 1747.6 1452.3 1731.09 1522.22 C 1728.28 1534.12 1755.78 1553.37 1766.55 1551.33 C 1884.73 1545.65 1945.25 1687.79 1857.51 1768.26 C 1820.65 1802.07 1760.89 1810.64 1717.68 1783.39 C 1711.45 1779.43 1705.55 1774.97 1700.04 1770.05 C 1690.63 1761.57 1680.13 1747.41 1668.08 1743.07 C 1663.08 1741.26 1656.92 1741.52 1651.68 1742.04 C 1645.16 1742.7 1639.41 1744.36 1634.31 1748.64 C 1609.88 1769.1 1603.25 1877.6 1571.49 1903.5 C 1561.18 1911.91 1548.85 1913.45 1536.01 1912.72 C 1521.43 1911.9 1508.16 1905.98 1494.42 1901.55 C 1467.03 1892.7 1439.79 1883.42 1412.31 1874.83 C 1401.78 1871.54 1390.73 1866.97 1379.88 1865.19 C 1368.57 1863.34 1353.6 1862.97 1344.54 1870.96 C 1337.04 1877.57 1336.17 1889.75 1336.13 1899.19 C 1336.12 1900.6 1336.26 1901.88 1336.43 1903.27 C 1338.11 1908.69 1337.35 1915.58 1336.58 1921.14 C 1330.5 1947.38 1329.52 1957.37 1312.03 1979.66 C 1239.82 2071.64 1077.76 2031.32 1056.3 1916.55 C 1055.16 1910.46 1056.61 1899.88 1056.05 1893.25 C 1053.59 1864.28 1064.98 1841.67 1084.64 1821.29 C 1095.26 1809.67 1094.13 1797.79 1092.72 1782.99 C 1088.64 1778.56 1084.22 1774.06 1078.5 1771.81 C 1059.6 1764.37 1037.98 1757.45 1018.7 1751.42 C 992.237 1743.19 965.888 1734.61 939.658 1725.67 C 927.878 1721.78 915.745 1717.7 903.964 1713.91 C 884.581 1707.67 874.268 1701.91 865.929 1682.37 C 861.556 1664.51 870.514 1661.23 857.402 1646.89 C 852.099 1655.35 849.819 1669.59 836.783 1677.44 C 825.646 1684.15 815.532 1688.03 802.936 1684.9 C 785.384 1680.54 767.833 1674.31 750.856 1668.46 C 731.314 1661.75 711.707 1655.23 692.038 1648.91 L 644.181 1633.06 C 640.728 1631.93 626.073 1627.92 624.176 1626.67 C 604.6 1613.82 591.877 1595.04 597.397 1570.99 C 598.626 1566.06 598.847 1562.8 601.644 1558.64 C 609.559 1539.14 623.252 1529.94 639.573 1517.83 C 714.153 1462.48 702.339 1355.27 622.991 1310.45 C 585.822 1289.45 553.438 1288.02 511.15 1298.43 L 509.995 1298.71 C 507.844 1299.72 499.037 1304.05 497.329 1304.43 C 477.918 1317.94 470.612 1325.01 453.483 1341.02 L 451.49 1344.31 C 439.146 1362.04 431.049 1389.57 430.612 1411.07 C 429.098 1412.91 430.027 1412.46 428.001 1412.74 L 426.254 1416.91 L 429.406 1417.88 C 430.744 1419.7 431.766 1432.44 432.543 1436.14 C 441.579 1479.12 467.166 1522.41 410.751 1545.75 C 407.365 1545.74 404.386 1545.67 401.003 1545.49 L 399.906 1546.69 C 389.184 1550.24 378.345 1547.3 368.327 1543.51 L 367.316 1543.26 C 344.779 1539.3 308.702 1524.14 286.426 1516.98 C 261.386 1508.38 233.568 1500.49 208.664 1492.15 C 133.431 1466.97 164.743 1403.35 180.938 1349.62 C 185.858 1333.29 189.464 1318.34 195.637 1302.33 C 195.853 1300.21 196.085 1299.87 196.712 1297.8 C 203.191 1261.21 241.074 1205.58 185.042 1192.5 C 183.453 1191.93 184.162 1192.17 182.061 1192.67 C 177.432 1194.38 169.743 1194.73 164.638 1195.58 C 136.453 1200.29 107.846 1195.38 82.6907 1181.79 C 60.6055 1169.86 31.356 1139.79 24.5357 1115.4 C 24.3874 1115.16 24.2392 1114.93 24.091 1114.7 C 12.2124 1085.89 11.594 1063.74 19.3903 1035.25 C 28.8221 986.537 82.1431 941.501 131.304 936.626 C 138.071 936.263 150.345 935.853 157.013 936.78 C 184.288 938.691 205.618 947.985 226.767 965.153 C 242.344 977.798 248.91 982.262 269.052 984.641 C 277.27 981.483 280.413 979.705 287.739 974.253 C 290.642 970.605 293.119 966.715 295.706 962.833 C 304.524 938.676 309.763 912.468 317.519 887.827 C 320.231 879.212 322.716 867.628 326.43 859.702 C 326.685 855.577 333.685 832.897 335.314 828.552 C 341.694 811.539 352.563 804.34 368.015 797.491 C 372.676 795.186 382.13 791.514 384.989 788.03 C 379.798 785.978 373.05 779.093 368.425 775.067 C 366.475 768.865 361.012 753.225 362.308 747.36 C 368.343 720.044 377.791 692.578 385.856 665.745 C 388.819 658.309 389.417 647.233 392.35 640.156 C 400.833 619.686 405.704 593.071 414.695 573.465 C 413.55 569.532 414.959 554.895 414.887 548.642 C 413.754 547.451 412.054 542.897 409.87 540.309 C 400.774 529.53 393.75 526.863 379.837 526.16 C 372.035 528.83 358.023 530.299 349.767 531.472 C 291.468 539.751 230.104 486.603 225.51 427.887 C 222.228 409.153 223.006 383.339 230.725 365.716 C 232.858 358.819 235.017 351.137 238.438 344.799 C 257.296 310.363 289.102 284.865 326.815 273.948 C 358.166 264.935 398.432 267.581 425.163 287.389 C 436.682 295.926 450.051 308.768 462.355 315.442 L 464.023 316.335 C 476.322 323.037 496.213 314.213 506.275 306.311 z"/>
<path transform="translate(0,0)" fill="rgb(122,193,78)" d="M 612.255 856.596 C 622.127 854.347 630.948 845.908 635.753 837.299 C 649.132 813.326 632.187 784.248 626.23 760.638 C 618.279 729.731 622.076 696.972 636.888 668.704 C 677.235 591.079 783.837 569.587 859.151 611.754 C 929.767 651.291 964.115 729.954 924.264 805.142 C 916.556 819.682 905.064 832.158 892.979 843.243 C 867.563 865.538 831.507 883.65 841.548 924.616 C 843.258 931.591 848.875 937.836 853.191 943.316 C 861.631 970.736 934.75 980.905 960.475 992.948 L 963.829 993.352 C 968.849 995.393 971.879 996.541 977.165 998.074 L 982.22 999.726 C 997.122 1005.28 1010.43 1006.72 1024.35 1014.45 C 1035.6 1026.69 1033.91 1032.04 1038.77 1037.88 L 1039.93 1038.38 C 1041.63 1043.96 1043.47 1045.08 1047.76 1049.17 C 1050.21 1046.72 1053.4 1043.71 1055.65 1041.18 L 1058.6 1044.36 C 1053.82 1051.66 1051.69 1058.36 1048.89 1066.59 C 1036.67 1105.78 1022.71 1149.12 1011.68 1188.17 C 1009.64 1197.82 1002.31 1222.85 997.046 1230.33 C 996.96 1242.66 998.152 1256.1 1011.26 1261.55 L 1013.18 1260.72 C 1032.37 1264.68 1050.69 1258.95 1070.38 1256.79 L 1072.57 1258.95 C 1076.38 1257.26 1117.28 1266.07 1124.47 1268.99 C 1160.17 1283.52 1186.37 1310.93 1202.57 1345.24 C 1203.54 1347.94 1207.99 1361.22 1209.13 1362.67 C 1209.01 1375.6 1209.53 1378.24 1215.44 1389.96 C 1215.37 1396.36 1215.45 1404.5 1214.43 1410.68 C 1210.4 1422.14 1209.55 1427.53 1206.99 1439.09 C 1204.7 1449.43 1196.98 1462.27 1191.31 1471.23 C 1171.13 1495.6 1139.74 1525.45 1106.29 1529.6 C 1095.89 1530.89 1096.61 1528.12 1087.17 1535.72 C 1084.24 1534.83 1078.6 1535.14 1075.34 1535.16 C 1063.33 1542.84 1018.29 1523.7 1006.75 1516.43 C 978.984 1498.93 947.99 1455.19 919.158 1496.01 C 916.077 1502.15 912.8 1508.64 910.872 1515.26 C 908.655 1515.64 909.696 1515.84 907.76 1514.6 L 907.356 1509.32 C 908.187 1506.62 908.206 1506.39 908.445 1503.57 C 906.307 1500.48 906.095 1501.15 902.067 1499.32 C 902.018 1504.64 901.764 1512.22 898.166 1516.57 L 894.963 1520.46 L 893.63 1520.53 C 891.5 1525.81 890.114 1531.29 888.563 1536.77 C 884.629 1551.52 879.61 1566.65 874.998 1581.24 C 873.031 1587.46 869.763 1599.16 867.452 1604.64 C 865.015 1614.97 857.815 1633.98 857.164 1643.07 L 857.402 1646.89 C 852.099 1655.35 849.819 1669.59 836.783 1677.44 C 825.646 1684.15 815.532 1688.03 802.936 1684.9 C 785.384 1680.54 767.833 1674.31 750.856 1668.46 C 731.314 1661.75 711.707 1655.23 692.038 1648.91 L 644.181 1633.06 C 640.728 1631.93 626.073 1627.92 624.176 1626.67 C 604.6 1613.82 591.877 1595.04 597.397 1570.99 C 598.626 1566.06 598.847 1562.8 601.644 1558.64 C 609.559 1539.14 623.252 1529.94 639.573 1517.83 C 714.153 1462.48 702.339 1355.27 622.991 1310.45 C 585.822 1289.45 553.438 1288.02 511.15 1298.43 L 509.995 1298.71 C 507.844 1299.72 499.037 1304.05 497.329 1304.43 C 477.918 1317.94 470.612 1325.01 453.483 1341.02 L 451.49 1344.31 C 439.146 1362.04 431.049 1389.57 430.612 1411.07 C 429.098 1412.91 430.027 1412.46 428.001 1412.74 L 426.254 1416.91 L 429.406 1417.88 C 430.744 1419.7 431.766 1432.44 432.543 1436.14 C 441.579 1479.12 467.166 1522.41 410.751 1545.75 C 407.365 1545.74 404.386 1545.67 401.003 1545.49 L 399.906 1546.69 C 389.184 1550.24 378.345 1547.3 368.327 1543.51 L 367.316 1543.26 C 344.779 1539.3 308.702 1524.14 286.426 1516.98 C 261.386 1508.38 233.568 1500.49 208.664 1492.15 C 133.431 1466.97 164.743 1403.35 180.938 1349.62 C 185.858 1333.29 189.464 1318.34 195.637 1302.33 C 195.853 1300.21 196.085 1299.87 196.712 1297.8 C 203.191 1261.21 241.074 1205.58 185.042 1192.5 C 183.453 1191.93 184.162 1192.17 182.061 1192.67 C 177.432 1194.38 169.743 1194.73 164.638 1195.58 C 136.453 1200.29 107.846 1195.38 82.6907 1181.79 C 60.6055 1169.86 31.356 1139.79 24.5357 1115.4 C 24.3874 1115.16 24.2392 1114.93 24.091 1114.7 C 12.2124 1085.89 11.594 1063.74 19.3903 1035.25 C 28.8221 986.537 82.1431 941.501 131.304 936.626 C 138.071 936.263 150.345 935.853 157.013 936.78 C 184.288 938.691 205.618 947.985 226.767 965.153 C 242.344 977.798 248.91 982.262 269.052 984.641 C 277.27 981.483 280.413 979.705 287.739 974.253 C 290.642 970.605 293.119 966.715 295.706 962.833 C 304.524 938.676 309.763 912.468 317.519 887.827 C 320.231 879.212 322.716 867.628 326.43 859.702 C 326.685 855.577 333.685 832.897 335.314 828.552 C 341.694 811.539 352.563 804.34 368.015 797.491 C 372.676 795.186 382.13 791.514 384.989 788.03 L 385.173 787.116 C 389.184 788.894 391.926 790.037 395.688 792.34 C 430.529 804.819 466.408 814.582 501.302 826.873 C 526.881 835.882 553.962 842.832 579.251 852.353 C 591.43 855.747 599.474 857.247 612.255 856.596 z"/>
<path transform="translate(0,0)" fill="rgb(0,0,0)" d="M 1036.82 1066.49 C 1039.14 1063.17 1041.54 1060.31 1045.44 1059.14 C 1046.4 1062.25 1046.69 1064.18 1048.89 1066.59 C 1036.67 1105.78 1022.71 1149.12 1011.68 1188.17 C 1009.64 1197.82 1002.31 1222.85 997.046 1230.33 C 996.96 1242.66 998.152 1256.1 1011.26 1261.55 L 1013.18 1260.72 C 1032.37 1264.68 1050.69 1258.95 1070.38 1256.79 L 1072.57 1258.95 C 1076.38 1257.26 1117.28 1266.07 1124.47 1268.99 C 1160.17 1283.52 1186.37 1310.93 1202.57 1345.24 C 1203.54 1347.94 1207.99 1361.22 1209.13 1362.67 C 1209.01 1375.6 1209.53 1378.24 1215.44 1389.96 C 1215.37 1396.36 1215.45 1404.5 1214.43 1410.68 C 1210.4 1422.14 1209.55 1427.53 1206.99 1439.09 C 1204.7 1449.43 1196.98 1462.27 1191.31 1471.23 C 1171.13 1495.6 1139.74 1525.45 1106.29 1529.6 C 1095.89 1530.89 1096.61 1528.12 1087.17 1535.72 C 1084.24 1534.83 1078.6 1535.14 1075.34 1535.16 C 1063.33 1542.84 1018.29 1523.7 1006.75 1516.43 C 978.984 1498.93 947.99 1455.19 919.158 1496.01 C 917.168 1495.63 915.818 1494.97 913.929 1494.23 C 910.738 1495 910.535 1495.67 908.196 1494.6 C 908.166 1493.04 908.115 1491.48 908.044 1489.92 C 907.633 1477.68 932.706 1467.22 942.992 1465.21 C 953.186 1466.06 959.177 1468.94 968.695 1472.56 C 985.526 1481.63 998.887 1495.93 1012.61 1501.47 L 1015.45 1503.25 C 1019.46 1504.04 1026.99 1508.03 1031.67 1509.74 C 1044.06 1514.27 1056.93 1517.37 1070.03 1518.95 L 1084.77 1519.11 C 1105.96 1516.42 1125.29 1513.32 1143.91 1500.93 C 1150.88 1496.29 1156.41 1488.87 1165.49 1484.1 L 1167.79 1485.15 C 1168.72 1484.49 1180.48 1469.26 1181.62 1467.74 C 1181.26 1461.64 1185.12 1458.31 1187.39 1453.6 C 1202.56 1422.11 1204.4 1384.86 1191.52 1352.29 C 1190.31 1349.22 1190.62 1347.81 1192.09 1345.06 C 1191.92 1344.74 1187.9 1339.88 1187.51 1339.4 C 1184.25 1336.92 1162 1308.22 1161.34 1304.71 L 1160.64 1303.92 C 1151.59 1292.59 1148.07 1290.01 1135.48 1284.4 C 1127.25 1281.31 1122.9 1278.66 1115.28 1275.16 C 1112.53 1273.9 1104.95 1273.92 1100.23 1272.19 C 1095.99 1268.67 1089.36 1269.03 1083.98 1268.95 C 1082.29 1269.36 1082.57 1269.2 1080.76 1269.08 C 1077.86 1271.96 1077.83 1272.09 1074.34 1274.12 L 1062.84 1275.57 L 1060.79 1273.59 C 1053.75 1273.65 1045.84 1274.84 1038.57 1275.05 C 1005.34 1276.01 979.174 1258.65 989.843 1221.39 L 995.54 1203.02 C 1006.26 1170.82 1016.37 1138.42 1025.86 1105.83 C 1029.71 1092.77 1032.67 1079.39 1036.82 1066.49 z"/>
<path transform="translate(0,0)" fill="rgb(235,229,187)" d="M 913.929 1494.23 C 922.715 1484.47 929.017 1476.12 943.366 1475.87 C 966.481 1475.47 978.895 1490.04 995.596 1502.52 C 1004.38 1509.09 1018.3 1517.32 1027.77 1522.23 C 1038.89 1528 1051.74 1529.28 1063.76 1531.61 C 1067.39 1532.31 1071.73 1534.18 1075.34 1535.16 C 1063.33 1542.84 1018.29 1523.7 1006.75 1516.43 C 978.984 1498.93 947.99 1455.19 919.158 1496.01 C 917.168 1495.63 915.818 1494.97 913.929 1494.23 z"/>
<path transform="translate(0,0)" fill="rgb(232,212,134)" d="M 1045.44 1059.14 C 1046.4 1062.25 1046.69 1064.18 1048.89 1066.59 C 1036.67 1105.78 1022.71 1149.12 1011.68 1188.17 L 1009.61 1187.45 C 1007.24 1183.75 1008.03 1183.83 1007.76 1178.72 C 1016.07 1151.77 1026.47 1126.02 1032.95 1098.06 C 1035.89 1085.39 1043.25 1073.28 1045.44 1059.14 z"/>
<path transform="translate(0,0)" fill="rgb(160,202,126)" d="M 1181.62 1467.74 C 1181.26 1461.64 1185.12 1458.31 1187.39 1453.6 C 1202.56 1422.11 1204.4 1384.86 1191.52 1352.29 C 1190.31 1349.22 1190.62 1347.81 1192.09 1345.06 C 1210.57 1373.72 1207.6 1444.34 1181.62 1467.74 z"/>
<path transform="translate(0,0)" fill="rgb(160,202,126)" d="M 1084.77 1519.11 C 1105.96 1516.42 1125.29 1513.32 1143.91 1500.93 C 1150.88 1496.29 1156.41 1488.87 1165.49 1484.1 L 1167.79 1485.15 C 1156.48 1500.28 1132.73 1512.65 1114.57 1517.41 C 1106.97 1519.4 1097.19 1520.03 1088.96 1522.01 L 1084.77 1519.11 z"/>
<path transform="translate(0,0)" fill="rgb(235,229,187)" d="M 1011.26 1261.55 L 1013.18 1260.72 C 1032.37 1264.68 1050.69 1258.95 1070.38 1256.79 L 1072.57 1258.95 C 1066.57 1265.54 1037.03 1263.88 1027.02 1267.22 C 1025.24 1267.81 1014.06 1262.74 1011.26 1261.55 z"/>
<path transform="translate(0,0)" fill="rgb(234,205,93)" d="M 1007.76 1178.72 C 1008.03 1183.83 1007.24 1183.75 1009.61 1187.45 L 1011.68 1188.17 C 1009.64 1197.82 1002.31 1222.85 997.046 1230.33 C 997.345 1214.6 1003.77 1194.54 1007.76 1178.72 z"/>
<path transform="translate(0,0)" fill="rgb(225,234,213)" d="M 1015.45 1503.25 C 1019.46 1504.04 1026.99 1508.03 1031.67 1509.74 C 1044.06 1514.27 1056.93 1517.37 1070.03 1518.95 C 1066.58 1519.24 1063.12 1519.48 1059.66 1519.66 C 1056.63 1518.56 1047.52 1518.51 1043.66 1518.34 L 1044 1518.55 C 1040.78 1517.23 1017.04 1507.73 1014.71 1506.35 L 1015.45 1503.25 z"/>
<path transform="translate(0,0)" fill="rgb(160,202,126)" d="M 1161.34 1304.71 C 1166.76 1309.36 1176.36 1316.55 1180.65 1321.54 C 1183.03 1324.32 1176.49 1328.69 1187.94 1331.53 C 1190.39 1334.43 1189.16 1336.21 1187.51 1339.4 C 1184.25 1336.92 1162 1308.22 1161.34 1304.71 z"/>
<path transform="translate(0,0)" fill="rgb(225,234,213)" d="M 1070.03 1518.95 L 1084.77 1519.11 L 1088.96 1522.01 C 1075.42 1524.88 1072.09 1525.52 1059.66 1519.66 C 1063.12 1519.48 1066.58 1519.24 1070.03 1518.95 z"/>
<path transform="translate(0,0)" fill="rgb(214,231,193)" d="M 1060.79 1273.59 C 1060.39 1270.86 1060.28 1271.74 1060.75 1269.14 C 1066.61 1267.76 1074.53 1268.85 1080.76 1269.08 C 1077.86 1271.96 1077.83 1272.09 1074.34 1274.12 L 1062.84 1275.57 L 1060.79 1273.59 z"/>
<path transform="translate(0,0)" fill="rgb(214,231,193)" d="M 395.688 792.34 C 430.529 804.819 466.408 814.582 501.302 826.873 C 526.881 835.882 553.962 842.832 579.251 852.353 C 575.247 852.806 571.765 853.139 567.742 853.358 L 566.293 856.051 C 567.973 860.599 575.01 859.129 579.553 859.037 C 576.527 860.291 574.793 860.28 573.701 862.49 L 573.872 863.253 C 561.477 860.609 536.256 850.348 523.033 845.776 C 502.361 838.629 478.531 833.051 458.749 825.44 L 461.797 821.547 C 449.66 819.298 407.347 806.731 400.297 798.966 C 398.687 798.348 399.335 798.433 398.12 796.11 L 395.397 794.616 L 395.688 792.34 z"/>
<path transform="translate(0,0)" fill="rgb(0,0,0)" d="M 400.297 798.966 C 405.896 798.191 455.813 814.183 462.305 818.715 C 462.224 820.975 462.516 820.062 461.797 821.547 C 449.66 819.298 407.347 806.731 400.297 798.966 z"/>
<path transform="translate(0,0)" fill="rgb(0,0,0)" d="M 471.849 822.079 C 489.847 821.649 489.12 829.323 504.831 832.295 C 517.155 834.626 534.175 843.182 545.589 843.405 C 548.066 845.061 553.122 848.46 553.28 851.43 L 550.741 850.416 C 549.022 849.268 548.101 848.565 545.978 848.448 C 540.246 848.134 488.586 832.739 486.201 829.904 C 479.389 821.806 477.183 829.81 468.918 826.761 L 468.574 825.464 L 471.849 822.079 z"/>
<path transform="translate(0,0)" fill="rgb(214,231,193)" d="M 511.15 1298.43 L 510.854 1297.04 C 537.372 1285.66 579.82 1288.02 605.956 1299.29 C 608.888 1300.56 615.28 1303.58 617.938 1304.23 C 622.252 1307.66 627.57 1310.26 632.29 1313.49 C 642.198 1320.27 649.61 1326.71 657.981 1335.18 C 680.906 1359.61 693.128 1392.18 691.935 1425.67 C 691.043 1453.12 679.67 1479.74 662.034 1500.61 C 647.708 1514.97 632.49 1525.63 617.46 1539.35 C 611.957 1544.37 604.439 1556.57 601.644 1558.64 C 609.559 1539.14 623.252 1529.94 639.573 1517.83 C 714.153 1462.48 702.339 1355.27 622.991 1310.45 C 585.822 1289.45 553.438 1288.02 511.15 1298.43 z"/>
<path transform="translate(0,0)" fill="rgb(66,120,49)" d="M 185.042 1192.5 C 200.128 1184.13 225.064 1216.29 216.997 1234.67 C 219.455 1243.22 210.059 1266.14 207.295 1276.02 C 199.301 1304.57 190.081 1333.38 181.716 1361.71 C 177.074 1377.44 166.911 1405.93 165.107 1420.87 C 164.272 1428.05 164.504 1435.31 165.797 1442.41 C 166.686 1447.27 171.184 1460.91 170.837 1463.04 C 153.07 1434.94 167.273 1403.84 174.869 1375.57 C 177.748 1364.86 197.076 1307.47 195.637 1302.33 C 195.853 1300.21 196.085 1299.87 196.712 1297.8 C 203.191 1261.21 241.074 1205.58 185.042 1192.5 z"/>
<path transform="translate(0,0)" fill="rgb(198,224,168)" d="M 185.042 1192.5 C 200.128 1184.13 225.064 1216.29 216.997 1234.67 C 215.612 1241.12 199.475 1295.82 197.296 1298.22 L 196.712 1297.8 C 203.191 1261.21 241.074 1205.58 185.042 1192.5 z"/>
<path transform="translate(0,0)" fill="rgb(225,234,213)" d="M 597.397 1570.99 C 597.503 1574.57 597.41 1584.77 598.622 1587.61 C 604.04 1593.86 606.036 1607.02 613.328 1612.96 C 620.003 1618.4 628.655 1622.83 636.258 1627.02 L 635.928 1628.13 C 676.122 1642.49 717.935 1654.13 758.141 1668.79 C 773.075 1674.23 788.934 1679.75 804.448 1682.69 C 828.343 1687.39 852.444 1665.77 857.164 1643.07 L 857.402 1646.89 C 852.099 1655.35 849.819 1669.59 836.783 1677.44 C 825.646 1684.15 815.532 1688.03 802.936 1684.9 C 785.384 1680.54 767.833 1674.31 750.856 1668.46 C 731.314 1661.75 711.707 1655.23 692.038 1648.91 L 644.181 1633.06 C 640.728 1631.93 626.073 1627.92 624.176 1626.67 C 604.6 1613.82 591.877 1595.04 597.397 1570.99 z"/>
<path transform="translate(0,0)" fill="rgb(87,147,65)" d="M 598.622 1587.61 C 604.04 1593.86 606.036 1607.02 613.328 1612.96 C 620.003 1618.4 628.655 1622.83 636.258 1627.02 L 635.928 1628.13 C 628.73 1626.08 622.032 1622.57 616.248 1617.82 C 606.449 1609.92 599.969 1600.27 598.622 1587.61 z"/>
<path transform="translate(0,0)" fill="rgb(225,234,213)" d="M 195.637 1302.33 C 197.076 1307.47 177.748 1364.86 174.869 1375.57 C 167.273 1403.84 153.07 1434.94 170.837 1463.04 C 183.188 1485.65 219.969 1493.23 242.711 1500.8 L 334.107 1531.26 C 340.645 1533.38 363.024 1539.79 367.316 1543.26 C 344.779 1539.3 308.702 1524.14 286.426 1516.98 C 261.386 1508.38 233.568 1500.49 208.664 1492.15 C 133.431 1466.97 164.743 1403.35 180.938 1349.62 C 185.858 1333.29 189.464 1318.34 195.637 1302.33 z"/>
<path transform="translate(0,0)" fill="rgb(160,202,126)" d="M 992.129 1200.19 C 994.622 1184.86 1002.95 1163.48 1007.65 1148.1 L 1025.33 1090.84 C 1027.04 1085.45 1031.28 1070.93 1033.48 1067.05 L 1036.82 1066.49 C 1032.67 1079.39 1029.71 1092.77 1025.86 1105.83 C 1016.37 1138.42 1006.26 1170.82 995.54 1203.02 L 992.129 1200.19 z"/>
<path transform="translate(0,0)" fill="rgb(225,234,213)" d="M 408.27 1543.16 C 414.797 1538.26 421.669 1536.48 428.447 1529.87 C 462.263 1496.93 421.923 1455.19 426.254 1416.91 L 429.406 1417.88 C 430.744 1419.7 431.766 1432.44 432.543 1436.14 C 441.579 1479.12 467.166 1522.41 410.751 1545.75 L 406.544 1544.62 L 408.27 1543.16 z"/>
<path transform="translate(0,0)" fill="rgb(66,120,49)" d="M 408.27 1543.16 C 414.797 1538.26 421.669 1536.48 428.447 1529.87 C 462.263 1496.93 421.923 1455.19 426.254 1416.91 L 429.406 1417.88 C 419.156 1441.37 477.238 1517.1 413.748 1541.58 C 411.522 1542.44 410.658 1542.65 408.27 1543.16 z"/>
<path transform="translate(0,0)" fill="rgb(160,202,126)" d="M 986.422 1214.56 C 987.196 1218.42 986.94 1218.57 989.843 1221.39 C 979.174 1258.65 1005.34 1276.01 1038.57 1275.05 C 1045.84 1274.84 1053.75 1273.65 1060.79 1273.59 L 1062.84 1275.57 C 1055.11 1279.53 1025.69 1280.45 1017.51 1278.69 C 989.767 1272.73 979.463 1245.78 985.628 1220.26 C 986.22 1217.82 986.383 1217.11 986.422 1214.56 z"/>
<path transform="translate(0,0)" fill="rgb(225,234,213)" d="M 24.5357 1115.4 C 27.5632 1117.44 32.8638 1129.36 36.261 1134.29 C 55.2555 1163.83 89.459 1189.87 125.201 1193.54 C 140.713 1196.2 177.375 1190.09 182.061 1192.67 C 177.432 1194.38 169.743 1194.73 164.638 1195.58 C 136.453 1200.29 107.846 1195.38 82.6907 1181.79 C 60.6055 1169.86 31.356 1139.79 24.5357 1115.4 z"/>
<path transform="translate(0,0)" fill="rgb(160,202,126)" d="M 157.013 936.78 C 184.288 938.691 205.618 947.985 226.767 965.153 C 242.344 977.798 248.91 982.262 269.052 984.641 C 277.27 981.483 280.413 979.705 287.739 974.253 L 288.429 976.586 C 286.989 979.645 282.227 982.486 279.148 983.994 C 250.396 998.078 226.623 964.297 203.154 952.34 C 182.531 941.832 176.848 942.279 157.013 936.78 z"/>
<path transform="translate(0,0)" fill="rgb(225,234,213)" d="M 579.251 852.353 C 591.43 855.747 599.474 857.247 612.255 856.596 L 614.458 857.042 C 613.283 859.566 607.83 861.832 605.1 862.718 C 593.192 866.58 585.893 866.7 573.872 863.253 L 573.701 862.49 C 574.793 860.28 576.527 860.291 579.553 859.037 C 575.01 859.129 567.973 860.599 566.293 856.051 L 567.742 853.358 C 571.765 853.139 575.247 852.806 579.251 852.353 z"/>
<path transform="translate(0,0)" fill="rgb(0,0,0)" d="M 567.742 853.358 C 571.9 853.615 579.486 853.731 582.057 857.445 C 580.652 859.128 581.519 858.651 579.553 859.037 C 575.01 859.129 567.973 860.599 566.293 856.051 L 567.742 853.358 z"/>
<path transform="translate(0,0)" fill="rgb(214,231,193)" d="M 19.3903 1035.25 C 28.8221 986.537 82.1431 941.501 131.304 936.626 L 137.215 937.721 L 136.747 938.53 C 115.462 941.107 84.8215 950.678 69.2807 965.279 C 60.4977 972.503 48.8912 983.572 41.9642 992.687 C 39.6613 995.778 38.1603 997.61 36.4197 1001.02 C 30.9827 1009.91 23.5755 1022.59 22.067 1033.11 L 20.3758 1037.31 L 19.3903 1035.25 z"/>
<path transform="translate(0,0)" fill="rgb(66,120,49)" d="M 657.981 1335.18 C 663.481 1336.35 666.889 1341.59 670.209 1346.32 C 702.128 1391.8 703.389 1457.98 664.674 1499.76 C 664.057 1500.43 662.859 1500.48 662.034 1500.61 C 679.67 1479.74 691.043 1453.12 691.935 1425.67 C 693.128 1392.18 680.906 1359.61 657.981 1335.18 z"/>
<path transform="translate(0,0)" fill="rgb(235,229,187)" d="M 1033.48 1067.05 C 1036.63 1057.67 1038.23 1047.74 1038.77 1037.88 L 1039.93 1038.38 C 1041.63 1043.96 1043.47 1045.08 1047.76 1049.17 C 1050.21 1046.72 1053.4 1043.71 1055.65 1041.18 L 1058.6 1044.36 C 1053.82 1051.66 1051.69 1058.36 1048.89 1066.59 C 1046.69 1064.18 1046.4 1062.25 1045.44 1059.14 C 1041.54 1060.31 1039.14 1063.17 1036.82 1066.49 L 1033.48 1067.05 z"/>
<path transform="translate(0,0)" fill="rgb(198,224,168)" d="M 398.12 796.11 C 399.335 798.433 398.687 798.348 400.297 798.966 C 407.347 806.731 449.66 819.298 461.797 821.547 L 458.749 825.44 C 453.559 824.274 448.604 822.472 443.61 820.666 C 427.365 814.79 410.482 810.627 394.288 804.634 C 396.128 803.717 395.427 804.406 396.373 802.551 C 394.361 801.305 394.505 801.387 392.75 799.886 L 393.32 798.308 L 398.12 796.11 z"/>
<path transform="translate(0,0)" fill="rgb(87,147,65)" d="M 509.995 1298.71 L 504.385 1298.48 L 504.04 1297.56 C 508.698 1294.53 512.485 1294.49 517.335 1292.73 C 538.101 1285.18 563.049 1285.85 584.436 1290.41 C 593.714 1292.38 611.462 1296.45 617.938 1304.23 C 615.28 1303.58 608.888 1300.56 605.956 1299.29 C 579.82 1288.02 537.372 1285.66 510.854 1297.04 L 511.15 1298.43 L 509.995 1298.71 z"/>
<path transform="translate(0,0)" fill="rgb(198,224,168)" d="M 326.43 859.702 C 326.673 864.233 326.53 864.542 325.34 869.005 C 319.084 897.388 307.235 930.153 299.711 958.755 C 298.706 960.189 297.803 961.62 297.008 963.181 L 295.706 962.833 C 304.524 938.676 309.763 912.468 317.519 887.827 C 320.231 879.212 322.716 867.628 326.43 859.702 z"/>
<path transform="translate(0,0)" fill="rgb(225,234,213)" d="M 385.173 787.116 C 389.184 788.894 391.926 790.037 395.688 792.34 L 395.397 794.616 L 398.12 796.11 L 393.32 798.308 L 392.75 799.886 C 394.505 801.387 394.361 801.305 396.373 802.551 C 395.427 804.406 396.128 803.717 394.288 804.634 C 386.312 801.402 373.601 800.043 368.015 797.491 C 372.676 795.186 382.13 791.514 384.989 788.03 L 385.173 787.116 z"/>
<path transform="translate(0,0)" fill="rgb(66,120,49)" d="M 36.261 1134.29 C 39.6226 1135.13 46.2112 1144.82 49.1944 1148.25 C 53.9753 1153.72 59.1874 1158.8 64.7805 1163.43 C 79.6414 1175.76 92.5101 1183.25 111.194 1188.99 C 116.584 1190.64 122.01 1190.62 126.859 1192.4 L 125.201 1193.54 C 89.459 1189.87 55.2555 1163.83 36.261 1134.29 z"/>
<path transform="translate(0,0)" fill="rgb(235,229,187)" d="M 905.929 1486.45 L 908.044 1489.92 C 908.115 1491.48 908.166 1493.04 908.196 1494.6 C 910.535 1495.67 910.738 1495 913.929 1494.23 C 915.818 1494.97 917.168 1495.63 919.158 1496.01 C 916.077 1502.15 912.8 1508.64 910.872 1515.26 C 908.655 1515.64 909.696 1515.84 907.76 1514.6 L 907.356 1509.32 C 908.187 1506.62 908.206 1506.39 908.445 1503.57 C 906.307 1500.48 906.095 1501.15 902.067 1499.32 C 901.465 1498.96 900.863 1498.59 900.262 1498.23 C 901.925 1494.05 903.877 1490.44 905.929 1486.45 z"/>
<path transform="translate(0,0)" fill="rgb(87,147,65)" d="M 325.34 869.005 C 326.885 872.798 325.415 878.683 324.138 882.373 C 320.79 892.05 304.833 955.863 300.072 959.092 L 299.711 958.755 C 307.235 930.153 319.084 897.388 325.34 869.005 z"/>
<path transform="translate(0,0)" fill="rgb(160,202,126)" d="M 905.929 1486.45 C 906.84 1485.18 907.132 1484.16 907.652 1482.67 C 911.566 1471.4 925.535 1465.7 936.402 1464.01 C 939.416 1463.54 947.757 1462.64 950.173 1464.43 C 947.572 1464.63 945.553 1464.87 942.992 1465.21 C 932.706 1467.22 907.633 1477.68 908.044 1489.92 L 905.929 1486.45 z"/>
<path transform="translate(0,0)" fill="rgb(225,234,213)" d="M 449.379 1342.56 L 451.49 1344.31 C 439.146 1362.04 431.049 1389.57 430.612 1411.07 C 429.098 1412.91 430.027 1412.46 428.001 1412.74 C 429.27 1394.12 431.099 1383.93 437.584 1366.18 C 440.801 1358.17 447.31 1348.98 449.379 1342.56 z"/>
<path transform="translate(0,0)" fill="rgb(160,202,126)" d="M 968.695 1472.56 L 969.328 1470.42 C 974.933 1469.95 1010.88 1497.12 1012.61 1501.47 C 998.887 1495.93 985.526 1481.63 968.695 1472.56 z"/>
<path transform="translate(0,0)" fill="rgb(160,202,126)" d="M 453.483 1341.02 C 455.055 1331.62 476.899 1315.85 484.635 1309.41 C 488.472 1306.21 492.298 1304.44 497.329 1304.43 C 477.918 1317.94 470.612 1325.01 453.483 1341.02 z"/>
<path transform="translate(0,0)" fill="rgb(160,202,126)" d="M 1135.48 1284.4 C 1148.07 1290.01 1151.59 1292.59 1160.64 1303.92 L 1159.4 1304.42 C 1155.46 1303.78 1139.76 1291.13 1135.77 1287.83 L 1135.48 1284.4 z"/>
<path transform="translate(0,0)" fill="rgb(87,147,65)" d="M 69.2807 965.279 L 70.2452 966.529 C 64.0047 971.44 47.0157 991.973 41.9642 992.687 C 48.8912 983.572 60.4977 972.503 69.2807 965.279 z"/>
<path transform="translate(0,0)" fill="rgb(66,120,49)" d="M 36.4197 1001.02 C 36.6432 1005.6 26.1107 1026.14 23.6875 1032.89 C 22.3408 1033.26 22.881 1033.33 22.067 1033.11 C 23.5755 1022.59 30.9827 1009.91 36.4197 1001.02 z"/>
<path transform="translate(0,0)" fill="rgb(198,224,168)" d="M 900.262 1498.23 C 900.863 1498.59 901.465 1498.96 902.067 1499.32 C 902.018 1504.64 901.764 1512.22 898.166 1516.57 L 894.963 1520.46 L 893.63 1520.53 C 895.004 1514.48 898.395 1504.41 900.262 1498.23 z"/>
<path transform="translate(0,0)" fill="rgb(66,120,49)" d="M 437.584 1366.18 L 436.223 1365.5 C 437.127 1357.73 443.424 1347.81 448.54 1341.91 L 449.379 1342.56 C 447.31 1348.98 440.801 1358.17 437.584 1366.18 z"/>
<path transform="translate(0,0)" fill="rgb(225,234,213)" d="M 368.327 1543.51 C 371.625 1543.52 396.987 1545.78 399.906 1546.69 C 389.184 1550.24 378.345 1547.3 368.327 1543.51 z"/>
<path transform="translate(0,0)" fill="rgb(214,231,193)" d="M 1083.98 1268.95 C 1089.36 1269.03 1095.99 1268.67 1100.23 1272.19 C 1095.76 1275.03 1093.83 1274.43 1088.3 1273.92 C 1086.96 1273.28 1085.93 1272.6 1084.65 1271.83 L 1083.98 1268.95 z"/>
<path transform="translate(0,0)" fill="rgb(198,224,168)" d="M 1080.76 1269.08 C 1082.57 1269.2 1082.29 1269.36 1083.98 1268.95 L 1084.65 1271.83 C 1085.93 1272.6 1086.96 1273.28 1088.3 1273.92 L 1074.34 1274.12 C 1077.83 1272.09 1077.86 1271.96 1080.76 1269.08 z"/>
<path transform="translate(0,0)" fill="rgb(237,200,29)" d="M 1395.66 948.474 C 1407.66 941.29 1410.83 940.259 1424.59 937.118 L 1424.88 939.392 C 1425.71 939.74 1427.13 940.393 1427.94 940.624 C 1436.07 938.718 1442.92 938.993 1451.01 938.599 C 1506.39 935.903 1545.8 967.472 1567.75 1015.65 C 1573.68 1040.25 1573.84 1057.54 1568.77 1082.1 C 1564.96 1091.49 1561.63 1100.28 1555.85 1108.65 C 1545.33 1123.87 1532 1130.06 1527.12 1148.59 C 1529.22 1149.04 1529.18 1148.72 1530.69 1149.86 L 1530.86 1151.98 C 1529.7 1160.11 1544.26 1168.32 1540.64 1177.01 C 1548.44 1183.83 1585.76 1193.93 1596.55 1197.46 L 1698.94 1230.71 C 1711.07 1234.58 1754.21 1250.84 1764.02 1249.71 C 1767.33 1252.66 1767.47 1252.73 1771.74 1254.13 C 1788.51 1271.44 1800.51 1284.99 1793.08 1313.05 C 1774.67 1382.52 1747.6 1452.3 1731.09 1522.22 C 1728.28 1534.12 1755.78 1553.37 1766.55 1551.33 C 1884.73 1545.65 1945.25 1687.79 1857.51 1768.26 C 1820.65 1802.07 1760.89 1810.64 1717.68 1783.39 C 1711.45 1779.43 1705.55 1774.97 1700.04 1770.05 C 1690.63 1761.57 1680.13 1747.41 1668.08 1743.07 C 1663.08 1741.26 1656.92 1741.52 1651.68 1742.04 C 1645.16 1742.7 1639.41 1744.36 1634.31 1748.64 C 1609.88 1769.1 1603.25 1877.6 1571.49 1903.5 C 1561.18 1911.91 1548.85 1913.45 1536.01 1912.72 C 1521.43 1911.9 1508.16 1905.98 1494.42 1901.55 C 1467.03 1892.7 1439.79 1883.42 1412.31 1874.83 C 1401.78 1871.54 1390.73 1866.97 1379.88 1865.19 C 1368.57 1863.34 1353.6 1862.97 1344.54 1870.96 C 1337.04 1877.57 1336.17 1889.75 1336.13 1899.19 C 1336.12 1900.6 1336.26 1901.88 1336.43 1903.27 C 1338.11 1908.69 1337.35 1915.58 1336.58 1921.14 C 1330.5 1947.38 1329.52 1957.37 1312.03 1979.66 C 1239.82 2071.64 1077.76 2031.32 1056.3 1916.55 C 1055.16 1910.46 1056.61 1899.88 1056.05 1893.25 C 1053.59 1864.28 1064.98 1841.67 1084.64 1821.29 C 1095.26 1809.67 1094.13 1797.79 1092.72 1782.99 C 1088.64 1778.56 1084.22 1774.06 1078.5 1771.81 C 1059.6 1764.37 1037.98 1757.45 1018.7 1751.42 C 992.237 1743.19 965.888 1734.61 939.658 1725.67 C 927.878 1721.78 915.745 1717.7 903.964 1713.91 C 884.581 1707.67 874.268 1701.91 865.929 1682.37 C 861.556 1664.51 870.514 1661.23 857.402 1646.89 L 857.164 1643.07 C 857.815 1633.98 865.015 1614.97 867.452 1604.64 C 869.763 1599.16 873.031 1587.46 874.998 1581.24 C 879.61 1566.65 884.629 1551.52 888.563 1536.77 C 890.114 1531.29 891.5 1525.81 893.63 1520.53 L 894.963 1520.46 L 898.166 1516.57 C 901.764 1512.22 902.018 1504.64 902.067 1499.32 C 906.095 1501.15 906.307 1500.48 908.445 1503.57 C 908.206 1506.39 908.187 1506.62 907.356 1509.32 L 907.76 1514.6 C 909.696 1515.84 908.655 1515.64 910.872 1515.26 C 912.8 1508.64 916.077 1502.15 919.158 1496.01 C 947.99 1455.19 978.984 1498.93 1006.75 1516.43 C 1018.29 1523.7 1063.33 1542.84 1075.34 1535.16 C 1078.6 1535.14 1084.24 1534.83 1087.17 1535.72 C 1096.61 1528.12 1095.89 1530.89 1106.29 1529.6 C 1139.74 1525.45 1171.13 1495.6 1191.31 1471.23 C 1196.98 1462.27 1204.7 1449.43 1206.99 1439.09 C 1209.55 1427.53 1210.4 1422.14 1214.43 1410.68 C 1215.45 1404.5 1215.37 1396.36 1215.44 1389.96 C 1209.53 1378.24 1209.01 1375.6 1209.13 1362.67 C 1207.99 1361.22 1203.54 1347.94 1202.57 1345.24 C 1186.37 1310.93 1160.17 1283.52 1124.47 1268.99 C 1117.28 1266.07 1076.38 1257.26 1072.57 1258.95 L 1070.38 1256.79 C 1050.69 1258.95 1032.37 1264.68 1013.18 1260.72 L 1011.26 1261.55 C 998.152 1256.1 996.96 1242.66 997.046 1230.33 C 1002.31 1222.85 1009.64 1197.82 1011.68 1188.17 C 1022.71 1149.12 1036.67 1105.78 1048.89 1066.59 C 1051.69 1058.36 1053.82 1051.66 1058.6 1044.36 L 1055.65 1041.18 C 1061.47 1034.28 1068.08 1031.17 1076.46 1028.31 C 1083.84 1023.07 1082.94 1019.08 1083.98 1010.62 L 1084.8 1007.82 C 1088.82 1013.35 1089.78 1014.64 1095.48 1018.33 C 1095.54 1022.99 1095.31 1022.48 1099.53 1026.6 C 1100.3 1027.88 1101.27 1029.47 1102.41 1031.36 C 1110.34 1035.73 1123.96 1040.59 1131.95 1043.62 C 1168 1053.32 1203.82 1067.87 1239.88 1078.43 C 1266.8 1086.31 1298.9 1108.48 1326.79 1094 C 1339.06 1087.46 1343.08 1075.76 1343.55 1062.78 C 1343.93 1061.98 1344.74 1048.95 1345 1046.56 L 1345.93 1046.22 C 1347.32 1047.7 1347.35 1049.39 1347.89 1051.62 C 1348.91 1036.84 1342.46 1030.47 1349.12 1010.61 C 1356.92 987.316 1376.74 962.818 1398.28 951.468 L 1395.66 948.474 z"/>
<path transform="translate(0,0)" fill="rgb(240,242,236)" d="M 1527.12 1148.59 C 1529.22 1149.04 1529.18 1148.72 1530.69 1149.86 L 1530.86 1151.98 C 1529.7 1160.11 1544.26 1168.32 1540.64 1177.01 C 1548.44 1183.83 1585.76 1193.93 1596.55 1197.46 L 1698.94 1230.71 C 1711.07 1234.58 1754.21 1250.84 1764.02 1249.71 C 1767.33 1252.66 1767.47 1252.73 1771.74 1254.13 C 1788.51 1271.44 1800.51 1284.99 1793.08 1313.05 C 1774.67 1382.52 1747.6 1452.3 1731.09 1522.22 C 1728.28 1534.12 1755.78 1553.37 1766.55 1551.33 C 1884.73 1545.65 1945.25 1687.79 1857.51 1768.26 C 1820.65 1802.07 1760.89 1810.64 1717.68 1783.39 C 1711.45 1779.43 1705.55 1774.97 1700.04 1770.05 C 1690.63 1761.57 1680.13 1747.41 1668.08 1743.07 C 1663.08 1741.26 1656.92 1741.52 1651.68 1742.04 C 1645.16 1742.7 1639.41 1744.36 1634.31 1748.64 C 1609.88 1769.1 1603.25 1877.6 1571.49 1903.5 C 1561.18 1911.91 1548.85 1913.45 1536.01 1912.72 C 1521.43 1911.9 1508.16 1905.98 1494.42 1901.55 C 1467.03 1892.7 1439.79 1883.42 1412.31 1874.83 C 1401.78 1871.54 1390.73 1866.97 1379.88 1865.19 C 1368.57 1863.34 1353.6 1862.97 1344.54 1870.96 C 1337.04 1877.57 1336.17 1889.75 1336.13 1899.19 C 1336.12 1900.6 1336.26 1901.88 1336.43 1903.27 C 1338.11 1908.69 1337.35 1915.58 1336.58 1921.14 C 1330.5 1947.38 1329.52 1957.37 1312.03 1979.66 C 1239.82 2071.64 1077.76 2031.32 1056.3 1916.55 C 1055.16 1910.46 1056.61 1899.88 1056.05 1893.25 C 1053.59 1864.28 1064.98 1841.67 1084.64 1821.29 C 1095.26 1809.67 1094.13 1797.79 1092.72 1782.99 C 1088.64 1778.56 1084.22 1774.06 1078.5 1771.81 C 1059.6 1764.37 1037.98 1757.45 1018.7 1751.42 C 992.237 1743.19 965.888 1734.61 939.658 1725.67 C 927.878 1721.78 915.745 1717.7 903.964 1713.91 C 884.581 1707.67 874.268 1701.91 865.929 1682.37 C 866.588 1677.87 866.995 1663.56 866.482 1658.97 L 867.609 1661.8 L 865.536 1662.66 C 865.978 1666.53 866.044 1671.19 867.142 1674.82 C 869.934 1691.22 880.657 1702.12 896.004 1707.97 C 911.604 1713.92 928.385 1718.59 944.348 1723.81 L 1042.56 1755.96 C 1063.7 1762.79 1096.65 1768.02 1098.14 1794.47 C 1099.12 1811.98 1091.11 1819.43 1080.3 1831.32 C 1052.16 1862.28 1052 1914.33 1070.65 1950.03 C 1123.67 2052.64 1294.66 2057.15 1329.84 1938.25 C 1337.57 1912.16 1319.98 1857.85 1368.46 1859.73 C 1381.93 1860.25 1395.52 1866.03 1408.38 1870.24 L 1482.33 1894.54 C 1495.06 1898.72 1513.45 1905.33 1525.89 1908.03 C 1532.63 1909.56 1539.54 1910.12 1546.44 1909.69 C 1566.7 1908.26 1579.42 1894.37 1585.86 1876.05 C 1598.32 1840.59 1608.12 1804.16 1619.09 1768.2 C 1624.75 1749.64 1633.92 1739.02 1654.51 1738.64 C 1675.63 1738.19 1689.63 1755.22 1703.57 1768.63 C 1724.58 1788.83 1752.39 1796.83 1781.21 1795.73 C 1812.66 1794.63 1842.37 1781 1863.73 1757.89 C 1885.6 1733.88 1897.05 1702.18 1895.54 1669.74 C 1893.27 1617.8 1857.86 1573.21 1807.78 1559.23 C 1785.62 1553.25 1755.84 1557.47 1738.91 1544.24 C 1718.2 1528.07 1736.38 1487.98 1742.83 1467.49 L 1769.01 1381.91 C 1776.85 1356.21 1790.46 1321 1791.4 1295.12 C 1793.13 1285.95 1781.74 1266.06 1774.07 1262.49 C 1736.47 1245.02 1694.19 1236.36 1655.28 1221.22 C 1636.83 1214.04 1615.84 1210.06 1597.41 1202.59 C 1564.37 1189.21 1527.71 1194.24 1527.12 1148.59 z"/>
<path transform="translate(0,0)" fill="rgb(240,242,236)" d="M 1336.43 1903.27 C 1338.11 1908.69 1337.35 1915.58 1336.58 1921.14 C 1332.48 1916.59 1332.67 1908.08 1336.43 1903.27 z"/>
<path transform="translate(0,0)" fill="rgb(0,0,0)" d="M 902.067 1499.32 C 906.095 1501.15 906.307 1500.48 908.445 1503.57 C 908.206 1506.39 908.187 1506.62 907.356 1509.32 C 902.305 1537.95 888.141 1567.03 882.521 1592.35 C 878.74 1602.73 875.896 1611.81 871.649 1622.17 C 870.296 1625.04 870.741 1625.31 868.467 1626.84 C 864.164 1620.55 867.765 1609.68 872.997 1604.37 L 867.452 1604.64 C 869.763 1599.16 873.031 1587.46 874.998 1581.24 C 879.61 1566.65 884.629 1551.52 888.563 1536.77 C 890.114 1531.29 891.5 1525.81 893.63 1520.53 L 894.963 1520.46 L 898.166 1516.57 C 901.764 1512.22 902.018 1504.64 902.067 1499.32 z"/>
<path transform="translate(0,0)" fill="rgb(198,224,168)" d="M 888.563 1536.77 L 889.277 1541.31 C 891.055 1542.03 890.636 1542.03 892.485 1542.21 C 885.701 1557.33 882.731 1572.69 877.895 1588.45 C 876.79 1592.05 874.378 1601.68 872.997 1604.37 L 867.452 1604.64 C 869.763 1599.16 873.031 1587.46 874.998 1581.24 C 879.61 1566.65 884.629 1551.52 888.563 1536.77 z"/>
<path transform="translate(0,0)" fill="rgb(160,202,126)" d="M 893.63 1520.53 L 894.963 1520.46 L 898.166 1516.57 C 896.515 1526.1 896.302 1533.22 892.485 1542.21 C 890.636 1542.03 891.055 1542.03 889.277 1541.31 L 888.563 1536.77 C 890.114 1531.29 891.5 1525.81 893.63 1520.53 z"/>
<path transform="translate(0,0)" fill="rgb(235,229,187)" d="M 1131.95 1043.62 C 1168 1053.32 1203.82 1067.87 1239.88 1078.43 C 1266.8 1086.31 1298.9 1108.48 1326.79 1094 C 1339.06 1087.46 1343.08 1075.76 1343.55 1062.78 C 1343.93 1061.98 1344.74 1048.95 1345 1046.56 L 1345.93 1046.22 C 1347.32 1047.7 1347.35 1049.39 1347.89 1051.62 C 1348.03 1059.23 1348.53 1068.47 1346.17 1075.63 C 1329.35 1124.08 1278.88 1095.75 1246.55 1085.7 C 1207.22 1073.46 1167.73 1057.53 1128.31 1046.46 L 1131.95 1043.62 z"/>
<path transform="translate(0,0)" fill="rgb(235,229,187)" d="M 1070.38 1256.79 C 1122.7 1252.49 1185.35 1287.5 1204.18 1340.8 C 1204.77 1342.47 1203.48 1343.71 1202.57 1345.24 C 1186.37 1310.93 1160.17 1283.52 1124.47 1268.99 C 1117.28 1266.07 1076.38 1257.26 1072.57 1258.95 L 1070.38 1256.79 z"/>
<path transform="translate(0,0)" fill="rgb(235,229,187)" d="M 1191.31 1471.23 L 1193.58 1476.34 C 1169.76 1507.36 1138.79 1530.16 1099.15 1535.87 C 1094.54 1536.53 1091.79 1536.8 1087.17 1535.72 C 1096.61 1528.12 1095.89 1530.89 1106.29 1529.6 C 1139.74 1525.45 1171.13 1495.6 1191.31 1471.23 z"/>
<path transform="translate(0,0)" fill="rgb(225,234,213)" d="M 867.452 1604.64 L 872.997 1604.37 C 867.765 1609.68 864.164 1620.55 868.467 1626.84 C 870.741 1625.31 870.296 1625.04 871.649 1622.17 C 874.361 1627.76 868.776 1631.46 872.804 1638.07 C 870.545 1646.42 869.113 1652.02 868.192 1660.62 C 867.859 1663.74 867.662 1672.81 867.142 1674.82 C 866.044 1671.19 865.978 1666.53 865.536 1662.66 L 867.609 1661.8 L 866.482 1658.97 C 866.995 1663.56 866.588 1677.87 865.929 1682.37 C 861.556 1664.51 870.514 1661.23 857.402 1646.89 L 857.164 1643.07 C 857.815 1633.98 865.015 1614.97 867.452 1604.64 z"/>
<path transform="translate(0,0)" fill="rgb(225,234,213)" d="M 1084.8 1007.82 C 1088.82 1013.35 1089.78 1014.64 1095.48 1018.33 C 1095.54 1022.99 1095.31 1022.48 1099.53 1026.6 C 1100.3 1027.88 1101.27 1029.47 1102.41 1031.36 C 1110.34 1035.73 1123.96 1040.59 1131.95 1043.62 L 1128.31 1046.46 C 1117.31 1041.63 1091.49 1034.43 1079.2 1030.59 L 1076.46 1028.31 C 1083.84 1023.07 1082.94 1019.08 1083.98 1010.62 L 1084.8 1007.82 z"/>
<path transform="translate(0,0)" fill="rgb(232,212,134)" d="M 907.356 1509.32 L 907.76 1514.6 C 909.696 1515.84 908.655 1515.64 910.872 1515.26 C 908.849 1524.71 890.905 1585.24 887.269 1590.98 C 886.21 1589.64 886.206 1587.91 886.692 1586.39 C 885.735 1589.64 884.892 1590.09 882.521 1592.35 C 888.141 1567.03 902.305 1537.95 907.356 1509.32 z"/>
<path transform="translate(0,0)" fill="rgb(234,205,93)" d="M 1214.43 1410.68 C 1216.36 1412.65 1217.55 1413.19 1217.23 1416.42 C 1215.02 1439.25 1207.43 1455.72 1195.08 1474.48 C 1193.97 1476.15 1195.19 1474.76 1193.58 1476.34 L 1191.31 1471.23 C 1196.98 1462.27 1204.7 1449.43 1206.99 1439.09 C 1209.55 1427.53 1210.4 1422.14 1214.43 1410.68 z"/>
<path transform="translate(0,0)" fill="rgb(235,229,187)" d="M 882.521 1592.35 C 884.892 1590.09 885.735 1589.64 886.692 1586.39 C 886.206 1587.91 886.21 1589.64 887.269 1590.98 C 883.523 1606.99 878.69 1622.72 872.804 1638.07 C 868.776 1631.46 874.361 1627.76 871.649 1622.17 C 875.896 1611.81 878.74 1602.73 882.521 1592.35 z"/>
<path transform="translate(0,0)" fill="rgb(235,229,187)" d="M 1395.66 948.474 C 1407.66 941.29 1410.83 940.259 1424.59 937.118 L 1424.88 939.392 C 1425.71 939.74 1427.13 940.393 1427.94 940.624 C 1414.71 944.104 1410.41 945.535 1398.28 951.468 L 1395.66 948.474 z"/>
<path transform="translate(0,0)" fill="rgb(235,229,187)" d="M 1209.13 1362.67 C 1216.69 1365.81 1218.98 1383.73 1215.44 1389.96 C 1209.53 1378.24 1209.01 1375.6 1209.13 1362.67 z"/>
<path transform="translate(0,0)" fill="rgb(232,212,134)" d="M 1055.65 1041.18 C 1061.47 1034.28 1068.08 1031.17 1076.46 1028.31 L 1079.2 1030.59 C 1069.96 1032.88 1064.75 1037.09 1058.6 1044.36 L 1055.65 1041.18 z"/>
<path transform="translate(0,0)" fill="rgb(44,146,215)" d="M 1595.64 303.589 C 1597.37 260.376 1573.34 241.228 1585.92 198.531 C 1589.57 183.228 1597.46 171.329 1609.02 160.503 C 1629.55 141.285 1671.45 123.572 1699.72 125.535 C 1785.21 131.474 1885.81 187.827 1882.87 284.934 C 1882.09 310.846 1869.58 344.141 1849.87 361.383 C 1830.1 379.002 1815.6 381.781 1812.62 409.686 C 1815.21 414.477 1816.12 417.714 1817.76 422.822 C 1830.37 432.316 1843.28 438.779 1858.53 443.238 C 1891.09 452.619 1924.15 466.359 1956.32 476.264 C 1990.76 486.869 2028.23 497.493 2033.76 539.466 C 2035.99 556.47 2020.71 582.681 2017.18 599.893 C 2014.2 614.446 2007.84 629.049 2003.48 643.223 C 1993.34 676.63 1982.97 709.965 1972.36 743.223 C 1966.13 762.926 1959.98 784.589 1952.1 803.298 C 1947.13 815.103 1928.78 827.1 1916.56 829.16 C 1907.43 830.7 1907.81 831.377 1899.92 826.562 L 1897.86 826.748 L 1896.01 829.101 C 1875.49 826.418 1853.29 795.903 1836.38 785.581 C 1823.63 777.799 1808.25 773.279 1794.05 768.515 C 1769.69 767.611 1761.96 769.154 1739.21 774.38 C 1637.52 812.747 1633.44 951.311 1732.52 996.889 C 1764.73 1011.71 1784.91 1002.42 1817.96 1000.82 C 1819.51 999.153 1819.29 999.144 1821.38 998.243 C 1839 1000.8 1850.67 1003.48 1861.92 1018.76 C 1879.81 1043.05 1866.9 1071.73 1858.97 1096.87 C 1851.44 1121.27 1843.66 1145.59 1835.62 1169.83 C 1829.83 1187.7 1824.56 1206.24 1818.24 1223.91 C 1815 1232.96 1806.52 1243.16 1797.09 1246.31 C 1786.09 1250.78 1782.37 1250.83 1771.74 1254.13 C 1767.47 1252.73 1767.33 1252.66 1764.02 1249.71 C 1754.21 1250.84 1711.07 1234.58 1698.94 1230.71 L 1596.55 1197.46 C 1585.76 1193.93 1548.44 1183.83 1540.64 1177.01 C 1544.26 1168.32 1529.7 1160.11 1530.86 1151.98 L 1530.69 1149.86 C 1529.18 1148.72 1529.22 1149.04 1527.12 1148.59 C 1532 1130.06 1545.33 1123.87 1555.85 1108.65 C 1561.63 1100.28 1564.96 1091.49 1568.77 1082.1 C 1573.84 1057.54 1573.68 1040.25 1567.75 1015.65 C 1545.8 967.472 1506.39 935.903 1451.01 938.599 C 1442.92 938.993 1436.07 938.718 1427.94 940.624 C 1427.13 940.393 1425.71 939.74 1424.88 939.392 L 1424.59 937.118 C 1410.83 940.259 1407.66 941.29 1395.66 948.474 L 1398.28 951.468 C 1376.74 962.818 1356.92 987.316 1349.12 1010.61 C 1342.46 1030.47 1348.91 1036.84 1347.89 1051.62 C 1347.35 1049.39 1347.32 1047.7 1345.93 1046.22 L 1345 1046.56 C 1344.74 1048.95 1343.93 1061.98 1343.55 1062.78 C 1343.08 1075.76 1339.06 1087.46 1326.79 1094 C 1298.9 1108.48 1266.8 1086.31 1239.88 1078.43 C 1203.82 1067.87 1168 1053.32 1131.95 1043.62 C 1123.96 1040.59 1110.34 1035.73 1102.41 1031.36 C 1101.27 1029.47 1100.3 1027.88 1099.53 1026.6 C 1095.31 1022.48 1095.54 1022.99 1095.48 1018.33 C 1089.78 1014.64 1088.82 1013.35 1084.8 1007.82 L 1083.98 1010.62 C 1082.94 1019.08 1083.84 1023.07 1076.46 1028.31 C 1068.08 1031.17 1061.47 1034.28 1055.65 1041.18 C 1053.4 1043.71 1050.21 1046.72 1047.76 1049.17 C 1043.47 1045.08 1041.63 1043.96 1039.93 1038.38 L 1038.77 1037.88 C 1033.91 1032.04 1035.6 1026.69 1024.35 1014.45 C 1010.43 1006.72 997.122 1005.28 982.22 999.726 C 982.92 998.96 984.686 994.71 985.427 993.354 C 988.065 991.987 990.242 992.718 993.288 993.143 L 993.982 993.505 C 1001.51 989.614 1024.29 1008.17 1041.96 1001.16 C 1049.52 999.087 1061.73 990.788 1065.2 982.981 C 1080.11 949.37 1088 910.586 1100.36 875.675 C 1102.9 868.502 1105.14 854.915 1108.69 849.505 L 1109.47 849.027 C 1108.5 843.362 1114.48 827.495 1116.71 821.772 C 1130.43 786.643 1164.09 774.117 1196.91 794.241 C 1216.39 806.186 1231.11 822.285 1251.49 832.326 C 1260.07 836.558 1270.3 838.373 1279.61 840.098 C 1284.42 840.977 1289.21 840.615 1293.73 842.587 L 1296.87 843.006 C 1299.19 842.329 1300.39 841.819 1302.74 843.483 L 1303.4 842.5 C 1307.08 840.756 1323.46 840.088 1328.67 839.011 C 1402.38 823.776 1443 735.64 1408.39 669.35 C 1388.8 631.83 1348.64 608.352 1306.43 612.208 C 1288.43 613.735 1272.35 620.782 1254.4 614.174 C 1203.97 595.615 1219.52 552.23 1232.24 514.045 C 1237.11 499.414 1241.53 483.355 1246.35 468.641 C 1264.55 413.076 1280.11 355.789 1299.02 300.53 L 1301.96 290.727 C 1302.95 287.241 1302.99 285.702 1304.97 282.802 C 1309.81 285.741 1310.1 285.152 1315.29 282.95 C 1318.37 275.765 1329.45 264.353 1336.86 261.676 C 1371.36 249.205 1405.49 270.92 1437.99 281.14 C 1475.21 292.846 1512.4 308.163 1549.51 320.564 C 1560.58 324.264 1563.23 326.689 1576.33 321.942 C 1584.93 319.391 1590.62 310.672 1595.64 303.589 z"/>
<path transform="translate(0,0)" fill="rgb(0,0,0)" d="M 1300.14 309.195 C 1300.58 305.958 1300.37 302.256 1302.38 300.689 C 1305.77 301.722 1305.71 301.105 1307.7 303.407 C 1306.36 306.453 1307.28 305.039 1304.13 307.322 C 1305.52 308.17 1306.83 309.024 1308.27 309.77 L 1308.13 310.453 C 1302.48 323.144 1287.86 374.992 1283.38 381.885 L 1284.13 384.074 C 1284.52 381.131 1279.61 401.798 1280.68 398.952 C 1280.55 407.537 1275.2 422.611 1272.48 431.28 C 1263.89 457.686 1255.69 484.212 1247.86 510.852 C 1239.2 539.962 1213.38 594.708 1266.07 599.076 C 1278.96 600.145 1293.68 595.225 1306.61 594.452 C 1344.71 592.586 1377.01 605.531 1403.29 632.533 C 1416.64 646.045 1426.58 662.532 1432.3 680.637 L 1430.64 682.157 C 1431.65 689.032 1432.95 695.279 1434.3 702.062 C 1436.1 711.172 1433.26 713.624 1436.4 722.228 C 1435 726.733 1432.51 732.196 1432.85 736.47 C 1434.18 737.238 1435.42 737.97 1436.78 738.679 L 1436.32 741.598 C 1432.41 754.736 1426.63 771.939 1421 784.28 C 1416.48 794.206 1410.85 790.607 1408.56 805.828 C 1402.96 817.415 1386.23 830.853 1375.75 838.4 C 1338.91 864.917 1285.89 864.839 1245.2 847.93 C 1243.92 847.399 1243.74 846.955 1242.74 845.905 L 1242.07 845 L 1241.18 842.737 C 1236.65 841.394 1231.44 836.183 1227.49 833.295 C 1198.03 811.751 1175.59 787.325 1137.57 807.778 C 1130.24 822.554 1123.84 836.639 1118.59 852.279 C 1118.13 853.646 1114.36 855.748 1113.07 856.528 C 1111.21 860.786 1116.42 867.146 1112.94 873.08 C 1109.28 879.313 1107.17 905.942 1098.45 903.881 L 1096.24 901.424 C 1099.13 894.58 1101.17 894.76 1102.01 885.632 C 1103.16 873.041 1110.98 862.511 1108.69 849.505 L 1109.47 849.027 C 1108.5 843.362 1114.48 827.495 1116.71 821.772 C 1130.43 786.643 1164.09 774.117 1196.91 794.241 C 1216.39 806.186 1231.11 822.285 1251.49 832.326 C 1260.07 836.558 1270.3 838.373 1279.61 840.098 C 1284.42 840.977 1289.21 840.615 1293.73 842.587 L 1296.87 843.006 C 1299.19 842.329 1300.39 841.819 1302.74 843.483 L 1303.4 842.5 C 1307.08 840.756 1323.46 840.088 1328.67 839.011 C 1402.38 823.776 1443 735.64 1408.39 669.35 C 1388.8 631.83 1348.64 608.352 1306.43 612.208 C 1288.43 613.735 1272.35 620.782 1254.4 614.174 C 1203.97 595.615 1219.52 552.23 1232.24 514.045 C 1237.11 499.414 1241.53 483.355 1246.35 468.641 C 1264.55 413.076 1280.11 355.789 1299.02 300.53 L 1300.14 309.195 z"/>
<path transform="translate(0,0)" fill="rgb(240,242,236)" d="M 1303.4 842.5 C 1307.08 840.756 1323.46 840.088 1328.67 839.011 C 1402.38 823.776 1443 735.64 1408.39 669.35 C 1388.8 631.83 1348.64 608.352 1306.43 612.208 C 1288.43 613.735 1272.35 620.782 1254.4 614.174 C 1203.97 595.615 1219.52 552.23 1232.24 514.045 C 1237.11 499.414 1241.53 483.355 1246.35 468.641 C 1264.55 413.076 1280.11 355.789 1299.02 300.53 L 1300.14 309.195 C 1299.7 316.058 1285.77 353.559 1282.92 360.49 L 1283.64 361.645 L 1286.5 361.713 C 1286.18 365.729 1282.09 367.612 1279.86 370.968 C 1277.74 374.168 1281.7 375.114 1281.38 376.017 C 1279.41 381.67 1275.67 384.647 1273.83 390.78 C 1258.08 443.181 1240.45 495.063 1225.95 547.824 C 1223.51 556.701 1226.68 558.381 1220.5 566.578 C 1223.24 578.22 1225.28 586.999 1233.61 596.252 C 1238.6 601.782 1249.31 611.823 1256.88 611.352 L 1260.49 609.104 C 1265.79 610.394 1264.04 615.38 1272.29 615.379 C 1279.37 615.379 1279.62 612.998 1286.02 610.917 C 1293.01 610.677 1301.06 609.971 1308.03 609.542 C 1341.46 607.486 1350.19 611.357 1376.24 629.531 C 1377.19 627.961 1376.75 628.776 1377.56 627.083 C 1425.5 665.296 1435.25 724.295 1410.58 779.692 C 1408.89 783.493 1398.65 791.961 1400.43 795.633 C 1401.38 796.373 1401.67 799.199 1401.53 798.564 C 1400.04 799.691 1397.97 801.379 1396.4 802.225 C 1390.19 805.56 1385.65 813.383 1380.16 817.354 C 1355.04 835.518 1334.39 845.622 1303.4 842.5 z"/>
<path transform="translate(0,0)" fill="rgb(240,242,236)" d="M 1280.68 398.952 C 1280.55 407.537 1275.2 422.611 1272.48 431.28 C 1263.89 457.686 1255.69 484.212 1247.86 510.852 C 1239.2 539.962 1213.38 594.708 1266.07 599.076 C 1278.96 600.145 1293.68 595.225 1306.61 594.452 C 1344.71 592.586 1377.01 605.531 1403.29 632.533 C 1416.64 646.045 1426.58 662.532 1432.3 680.637 L 1430.64 682.157 C 1427.02 666.606 1415.07 662.194 1409.84 651.436 C 1410.66 649.971 1410.94 649.411 1411.68 647.81 C 1401.12 631.48 1392.58 624.243 1375.31 616.239 C 1371.43 614.444 1368.8 609.29 1363.06 606.901 C 1362.89 607.003 1359.91 608.723 1359.7 608.636 C 1353.01 605.952 1344.43 602.378 1337.65 600.563 C 1327.38 597.812 1313.79 596.936 1303.33 597.893 C 1297.95 598.385 1288.91 601.289 1283.55 601.578 C 1274.5 602.066 1265.09 602.297 1256.07 602.597 L 1254.5 599.632 C 1252.55 599.169 1250.18 598.596 1248.31 597.93 C 1242.8 595.967 1237.1 588.465 1234.95 583.189 C 1227.53 564.928 1233.63 543.669 1239.1 525.765 C 1239.68 523.864 1240.86 519.868 1241.5 517.901 C 1241.93 516.585 1239.09 515.498 1240.05 513.008 C 1243.44 503.765 1249.56 495.234 1252.71 485.866 C 1255.51 477.517 1258.18 468.814 1260.44 460.31 C 1262.9 451.108 1265.04 441.947 1268.33 432.985 C 1267.91 432.025 1267.48 431.066 1267.06 430.106 C 1268.41 427.452 1269.77 424.757 1271.09 422.09 C 1275 414.632 1277.73 406.804 1280.68 398.952 z"/>
<path transform="translate(0,0)" fill="rgb(240,242,236)" d="M 1109.47 849.027 C 1108.5 843.362 1114.48 827.495 1116.71 821.772 C 1130.43 786.643 1164.09 774.117 1196.91 794.241 C 1216.39 806.186 1231.11 822.285 1251.49 832.326 C 1260.07 836.558 1270.3 838.373 1279.61 840.098 C 1284.42 840.977 1289.21 840.615 1293.73 842.587 C 1259.47 845.006 1239.11 829.557 1212.35 809.674 C 1207.61 806.154 1200.69 796.977 1194.91 796.331 L 1192.95 797.195 C 1188.83 794.454 1187.49 791.042 1182.89 789.772 C 1179.55 790.158 1179.37 790.483 1176.47 792.032 C 1171.53 791.74 1168.06 788.887 1165.16 788.3 C 1156.77 786.606 1143.63 794.609 1137.63 800.478 C 1131.72 806.252 1124.08 812.08 1120.25 819.522 C 1117.49 824.888 1114.78 848.708 1111.95 850.326 L 1109.47 849.027 z"/>
<path transform="translate(0,0)" fill="rgb(240,242,236)" d="M 1242.74 845.905 C 1244.67 844.641 1244.23 844.946 1246.48 844.188 C 1255.84 849.804 1277.6 855.41 1289.05 856.01 C 1294.65 856.303 1307.74 852.523 1313.9 855.26 C 1317.05 856.66 1321.6 851.684 1324.52 851.838 C 1327.4 851.991 1330.89 853.671 1333.85 853.836 C 1342.08 853.404 1366.59 842.009 1371.86 836.673 L 1371.01 834.831 C 1371.58 833.374 1380.07 829.644 1382.23 828.683 C 1393.66 823.599 1397.71 811.955 1408.56 805.828 C 1402.96 817.415 1386.23 830.853 1375.75 838.4 C 1338.91 864.917 1285.89 864.839 1245.2 847.93 C 1243.92 847.399 1243.74 846.955 1242.74 845.905 z"/>
<path transform="translate(0,0)" fill="rgb(240,242,236)" d="M 1296.87 843.006 C 1299.19 842.329 1300.39 841.819 1302.74 843.483 C 1305.07 845.425 1306.8 845.347 1307.52 847.598 C 1305.12 848.025 1302.7 848.402 1300.28 848.731 C 1297.49 849.083 1294.29 849.448 1292.03 847.706 L 1292.02 846.331 L 1296.87 843.006 z"/>
<path transform="translate(0,0)" fill="rgb(0,0,0)" d="M 1329.56 1021.3 C 1340.42 985.81 1351.94 962.918 1384.48 942.815 C 1406.58 929.168 1446.45 916.157 1472.54 923.804 C 1475.78 932.068 1480.98 926.755 1488.36 926.498 C 1490.24 926.433 1495.19 932.226 1497.45 932.118 C 1502.1 933.628 1507.87 934.217 1512.27 936.345 C 1538.96 949.271 1561.84 972.228 1574.95 998.9 C 1578.8 1006.72 1581.74 1015.45 1583.64 1025.13 C 1584.97 1031.93 1591.62 1060.5 1587.52 1066.77 C 1580.94 1076.84 1584.32 1080.14 1581.35 1091.35 C 1580.36 1095.35 1578.24 1100.16 1576.38 1103.9 C 1570.11 1118.49 1551.76 1132.51 1545.54 1144.57 C 1544.33 1146.16 1544.06 1146.06 1543.63 1147.8 C 1544.26 1155.02 1543.97 1163.99 1549.93 1169.13 C 1557.32 1175.5 1730.44 1230.42 1754.96 1238.62 L 1752.04 1241.44 C 1757.72 1244.12 1759.36 1245.75 1764.02 1249.71 C 1754.21 1250.84 1711.07 1234.58 1698.94 1230.71 L 1596.55 1197.46 C 1585.76 1193.93 1548.44 1183.83 1540.64 1177.01 C 1544.26 1168.32 1529.7 1160.11 1530.86 1151.98 L 1530.69 1149.86 C 1529.18 1148.72 1529.22 1149.04 1527.12 1148.59 C 1532 1130.06 1545.33 1123.87 1555.85 1108.65 C 1561.63 1100.28 1564.96 1091.49 1568.77 1082.1 C 1573.84 1057.54 1573.68 1040.25 1567.75 1015.65 C 1545.8 967.472 1506.39 935.903 1451.01 938.599 C 1442.92 938.993 1436.07 938.718 1427.94 940.624 C 1427.13 940.393 1425.71 939.74 1424.88 939.392 L 1424.59 937.118 C 1410.83 940.259 1407.66 941.29 1395.66 948.474 L 1398.28 951.468 C 1376.74 962.818 1356.92 987.316 1349.12 1010.61 C 1342.46 1030.47 1348.91 1036.84 1347.89 1051.62 C 1347.35 1049.39 1347.32 1047.7 1345.93 1046.22 L 1345 1046.56 C 1344.74 1048.95 1343.93 1061.98 1343.55 1062.78 C 1343.08 1075.76 1339.06 1087.46 1326.79 1094 C 1298.9 1108.48 1266.8 1086.31 1239.88 1078.43 C 1203.82 1067.87 1168 1053.32 1131.95 1043.62 C 1123.96 1040.59 1110.34 1035.73 1102.41 1031.36 C 1101.27 1029.47 1100.3 1027.88 1099.53 1026.6 C 1115.22 1026.41 1118.01 1032.63 1131.04 1037.59 C 1136.82 1039.79 1148.06 1039.59 1155.38 1041.66 C 1176.28 1047.57 1193.28 1059.44 1214.65 1063.27 C 1232.35 1066.43 1248.11 1073.74 1264.22 1081.31 C 1269.87 1082.16 1271.67 1078.78 1277.22 1081.52 C 1283.41 1084.58 1293.94 1089.85 1299.7 1092.02 C 1298.45 1091.55 1324.36 1084.51 1325.88 1084.17 C 1330.7 1076.07 1334.58 1070.25 1337.5 1061.28 C 1329.13 1044.16 1334.52 1037.82 1329.56 1021.3 z"/>
<path transform="translate(0,0)" fill="rgb(240,242,236)" d="M 1543.63 1147.8 C 1544.26 1155.02 1543.97 1163.99 1549.93 1169.13 C 1557.32 1175.5 1730.44 1230.42 1754.96 1238.62 L 1752.04 1241.44 C 1742.03 1238.65 1725.34 1232.65 1714.83 1229.33 C 1713.83 1229.86 1712.84 1230.38 1711.84 1230.91 C 1694.59 1222.15 1676.21 1217.35 1658.76 1209.28 C 1656.84 1208.39 1650.56 1209.26 1647.47 1208.14 C 1642.12 1206.2 1637.46 1204 1632.3 1202.27 C 1615.69 1196.91 1599.43 1191.03 1582.49 1186.72 C 1577.12 1185.17 1571.84 1182.7 1566.75 1180.57 C 1550.55 1173.79 1546.11 1171.63 1537.96 1156.06 C 1539.89 1153.62 1541.88 1150.44 1543.63 1147.8 z"/>
<path transform="translate(0,0)" fill="rgb(235,229,187)" d="M 1424.59 937.118 C 1451.53 929.188 1488.84 933.88 1513.16 947.713 C 1541.09 963.598 1557.9 982.054 1570.53 1011.19 L 1567.75 1015.65 C 1545.8 967.472 1506.39 935.903 1451.01 938.599 C 1442.92 938.993 1436.07 938.718 1427.94 940.624 C 1427.13 940.393 1425.71 939.74 1424.88 939.392 L 1424.59 937.118 z"/>
<path transform="translate(0,0)" fill="rgb(234,205,93)" d="M 1343.55 1062.78 C 1341.94 1052.97 1342.31 1012.87 1346.19 1003.72 C 1354.77 983.503 1375.54 957.807 1395.66 948.474 L 1398.28 951.468 C 1376.74 962.818 1356.92 987.316 1349.12 1010.61 C 1342.46 1030.47 1348.91 1036.84 1347.89 1051.62 C 1347.35 1049.39 1347.32 1047.7 1345.93 1046.22 L 1345 1046.56 C 1344.74 1048.95 1343.93 1061.98 1343.55 1062.78 z"/>
<path transform="translate(0,0)" fill="rgb(225,234,213)" d="M 1568.77 1082.1 L 1570.32 1081.61 L 1572.41 1076.49 L 1573.57 1077.67 C 1565.43 1108.73 1559.36 1111.12 1539.47 1135.86 C 1535.97 1140.21 1533.6 1148.95 1530.86 1151.98 L 1530.69 1149.86 C 1529.18 1148.72 1529.22 1149.04 1527.12 1148.59 C 1532 1130.06 1545.33 1123.87 1555.85 1108.65 C 1561.63 1100.28 1564.96 1091.49 1568.77 1082.1 z"/>
<path transform="translate(0,0)" fill="rgb(235,229,187)" d="M 1570.53 1011.19 C 1575.65 1026.75 1583.03 1063.18 1573.57 1077.67 L 1572.41 1076.49 L 1570.32 1081.61 L 1568.77 1082.1 C 1573.84 1057.54 1573.68 1040.25 1567.75 1015.65 L 1570.53 1011.19 z"/>
<path transform="translate(0,0)" fill="rgb(240,242,236)" d="M 1137.57 807.778 C 1175.59 787.325 1198.03 811.751 1227.49 833.295 C 1231.44 836.183 1236.65 841.394 1241.18 842.737 L 1242.07 845 C 1222.9 846.812 1190.23 781.7 1142.01 810.531 L 1139.42 808.959 L 1138.59 810.371 L 1139.55 812.723 C 1137.46 815.745 1130.98 824.534 1130.07 827.157 C 1124.74 842.548 1120.45 858.654 1115.41 874.168 L 1096.22 935.243 C 1091.11 951.202 1085.54 966.79 1081.8 983.164 C 1079.47 993.328 1080.47 998.325 1084.8 1007.82 L 1083.98 1010.62 C 1082.94 1019.08 1083.84 1023.07 1076.46 1028.31 C 1068.08 1031.17 1061.47 1034.28 1055.65 1041.18 C 1053.4 1043.71 1050.21 1046.72 1047.76 1049.17 C 1043.47 1045.08 1041.63 1043.96 1039.93 1038.38 L 1038.77 1037.88 C 1033.91 1032.04 1035.6 1026.69 1024.35 1014.45 C 1010.43 1006.72 997.122 1005.28 982.22 999.726 C 982.92 998.96 984.686 994.71 985.427 993.354 C 988.065 991.987 990.242 992.718 993.288 993.143 L 993.982 993.505 C 1001.51 989.614 1024.29 1008.17 1041.96 1001.16 C 1049.52 999.087 1061.73 990.788 1065.2 982.981 C 1080.11 949.37 1088 910.586 1100.36 875.675 C 1102.9 868.502 1105.14 854.915 1108.69 849.505 C 1110.98 862.511 1103.16 873.041 1102.01 885.632 C 1101.17 894.76 1099.13 894.58 1096.24 901.424 L 1098.45 903.881 C 1107.17 905.942 1109.28 879.313 1112.94 873.08 C 1116.42 867.146 1111.21 860.786 1113.07 856.528 C 1114.36 855.748 1118.13 853.646 1118.59 852.279 C 1123.84 836.639 1130.24 822.554 1137.57 807.778 z"/>
<path transform="translate(0,0)" fill="rgb(0,0,0)" d="M 1025.42 1014.13 C 1031.92 1004.67 1043.85 1003.57 1053.35 997.864 C 1056.53 995.953 1064.61 988.341 1067.64 985.526 C 1074.4 987.234 1080.56 1003.95 1083.98 1010.62 C 1082.94 1019.08 1083.84 1023.07 1076.46 1028.31 C 1068.08 1031.17 1061.47 1034.28 1055.65 1041.18 C 1053.4 1043.71 1050.21 1046.72 1047.76 1049.17 C 1043.47 1045.08 1041.63 1043.96 1039.93 1038.38 L 1038.77 1037.88 C 1033.91 1032.04 1035.6 1026.69 1024.35 1014.45 L 1025.42 1014.13 z"/>
<path transform="translate(0,0)" fill="rgb(160,202,126)" d="M 1025.42 1014.13 C 1035.82 1018.9 1038.7 1027.27 1039.93 1038.38 L 1038.77 1037.88 C 1033.91 1032.04 1035.6 1026.69 1024.35 1014.45 L 1025.42 1014.13 z"/>
<path transform="translate(0,0)" fill="rgb(0,0,0)" d="M 1094.62 916.214 C 1092.6 911.435 1090.97 907.783 1096.21 904.999 C 1099.62 905.875 1098.23 904.968 1100.36 908.02 C 1100.9 911.35 1099.91 912.369 1098.26 915.356 C 1097.61 916.952 1095.78 921.814 1094.94 922.937 C 1094.33 925.112 1094.36 924.725 1094.62 926.747 C 1095.69 939.959 1086.79 953.831 1082.08 965.923 C 1080.02 971.238 1080.49 978.516 1074.76 979.5 C 1072.16 977.21 1072.85 978.589 1072.43 975.326 C 1079.57 968.268 1080.14 951.213 1084.18 940.922 C 1089.15 939.483 1086.92 927.646 1088.41 921.404 L 1090.84 922.258 C 1093.44 920.088 1093.73 919.264 1094.62 916.214 z"/>
<path transform="translate(0,0)" fill="rgb(240,242,236)" d="M 1095.48 1018.33 C 1108.35 1023.97 1123.61 1028.63 1137.07 1033.1 L 1198.49 1053.45 L 1264.32 1075.03 C 1276.94 1079.24 1289.84 1083.84 1302.52 1087.55 C 1310.77 1089.26 1325.93 1081.04 1329.24 1073.55 C 1335.85 1058.13 1325.97 1040.72 1327.91 1024.38 C 1334.73 966.785 1384.55 925.376 1440.81 920.377 C 1515.49 913.74 1591.43 970.736 1589.8 1048.82 C 1589.37 1069.56 1587.68 1087.89 1577.19 1105.93 C 1571.78 1115.23 1555.04 1140.11 1545.54 1144.57 C 1551.76 1132.51 1570.11 1118.49 1576.38 1103.9 C 1578.24 1100.16 1580.36 1095.35 1581.35 1091.35 C 1584.32 1080.14 1580.94 1076.84 1587.52 1066.77 C 1591.62 1060.5 1584.97 1031.93 1583.64 1025.13 C 1581.74 1015.45 1578.8 1006.72 1574.95 998.9 C 1561.84 972.228 1538.96 949.271 1512.27 936.345 C 1507.87 934.217 1502.1 933.628 1497.45 932.118 C 1495.19 932.226 1490.24 926.433 1488.36 926.498 C 1480.98 926.755 1475.78 932.068 1472.54 923.804 C 1446.45 916.157 1406.58 929.168 1384.48 942.815 C 1351.94 962.918 1340.42 985.81 1329.56 1021.3 C 1334.52 1037.82 1329.13 1044.16 1337.5 1061.28 C 1334.58 1070.25 1330.7 1076.07 1325.88 1084.17 C 1324.36 1084.51 1298.45 1091.55 1299.7 1092.02 C 1293.94 1089.85 1283.41 1084.58 1277.22 1081.52 C 1271.67 1078.78 1269.87 1082.16 1264.22 1081.31 C 1248.11 1073.74 1232.35 1066.43 1214.65 1063.27 C 1193.28 1059.44 1176.28 1047.57 1155.38 1041.66 C 1148.06 1039.59 1136.82 1039.79 1131.04 1037.59 C 1118.01 1032.63 1115.22 1026.41 1099.53 1026.6 C 1095.31 1022.48 1095.54 1022.99 1095.48 1018.33 z"/>
<path transform="translate(0,0)" fill="rgb(240,242,236)" d="M 1754.96 1238.62 C 1772.36 1244.58 1778.62 1248.15 1797.09 1246.31 C 1786.09 1250.78 1782.37 1250.83 1771.74 1254.13 C 1767.47 1252.73 1767.33 1252.66 1764.02 1249.71 C 1759.36 1245.75 1757.72 1244.12 1752.04 1241.44 L 1754.96 1238.62 z"/>
<path transform="translate(0,0)" fill="rgb(240,242,236)" d="M 1308.13 310.453 C 1308.25 311.129 1308.67 312.928 1308.37 313.928 C 1301.34 337.694 1293.78 361.657 1286.28 385.217 C 1286.02 385.578 1285.76 385.94 1285.51 386.301 L 1284.13 384.074 L 1283.38 381.885 C 1287.86 374.992 1302.48 323.144 1308.13 310.453 z"/>
<path transform="translate(0,0)" fill="rgb(225,234,213)" d="M 1436.32 741.598 C 1438.19 756.361 1420.16 796.464 1408.56 805.828 C 1410.85 790.607 1416.48 794.206 1421 784.28 C 1426.63 771.939 1432.41 754.736 1436.32 741.598 z"/>
<path transform="translate(0,0)" fill="rgb(240,242,236)" d="M 1432.3 680.637 C 1436.33 693.659 1441.76 728.331 1437.22 739.388 L 1436.78 738.679 C 1435.42 737.97 1434.18 737.238 1432.85 736.47 C 1432.51 732.196 1435 726.733 1436.4 722.228 C 1433.26 713.624 1436.1 711.172 1434.3 702.062 C 1432.95 695.279 1431.65 689.032 1430.64 682.157 L 1432.3 680.637 z"/>
<path transform="translate(0,0)" fill="rgb(228,220,229)" d="M 1301.96 290.727 C 1305.76 291.514 1308.8 291.6 1311.4 294.279 L 1312.62 297.412 C 1311.88 300.782 1310.92 307.132 1309.02 309.618 L 1308.27 309.77 C 1306.83 309.024 1305.52 308.17 1304.13 307.322 C 1307.28 305.039 1306.36 306.453 1307.7 303.407 C 1305.71 301.105 1305.77 301.722 1302.38 300.689 C 1300.37 302.256 1300.58 305.958 1300.14 309.195 L 1299.02 300.53 L 1301.96 290.727 z"/>
<path transform="translate(0,0)" fill="rgb(198,220,227)" d="M 1739.21 774.38 L 1740.13 773.152 C 1747.87 769.23 1788.64 761.841 1794.05 768.515 C 1769.69 767.611 1761.96 769.154 1739.21 774.38 z"/>
<path transform="translate(0,0)" fill="rgb(241,207,219)" d="M 1301.96 290.727 C 1302.95 287.241 1302.99 285.702 1304.97 282.802 C 1309.81 285.741 1310.1 285.152 1315.29 282.95 C 1314.39 287.487 1313.25 292.868 1312.62 297.412 L 1311.4 294.279 C 1308.8 291.6 1305.76 291.514 1301.96 290.727 z"/>
<path transform="translate(0,0)" fill="rgb(225,234,213)" d="M 853.191 943.316 C 864.659 948.932 874.503 952.457 886.718 956.246 C 911.095 963.808 935.323 972.447 959.752 979.82 L 957.452 980.983 C 959.278 983.31 960.998 985.405 962.589 987.911 L 963.193 989.521 L 960.484 991.246 L 960.475 992.948 C 934.75 980.905 861.631 970.736 853.191 943.316 z"/>
<path transform="translate(0,0)" fill="rgb(0,0,0)" d="M 962.589 987.911 C 959.326 988.835 950.513 987.248 949.645 982.97 C 953.094 980.548 952.529 981.332 957.452 980.983 C 959.278 983.31 960.998 985.405 962.589 987.911 z"/>
<path transform="translate(0,0)" fill="rgb(0,0,0)" d="M 930.608 973.414 C 931.274 973.789 934.791 976.661 934.626 976.63 C 943.355 978.285 942.967 975.957 946.279 983.303 L 945.87 983.992 C 942.391 983.865 934.1 982.246 931.628 979.554 C 930.397 978.214 930.735 975.64 930.608 973.414 z"/>
<path transform="translate(0,0)" fill="rgb(0,0,0)" d="M 910.189 965.801 C 915.384 969.788 925.451 971.672 927.157 975.793 L 925.306 979.051 C 923.995 977.828 923.728 977.196 922.811 975.654 C 913.426 974.065 913.49 975.997 910.189 965.801 z"/>
<path transform="translate(0,0)" fill="rgb(0,0,0)" d="M 882.755 960.249 C 885.207 960.086 887.285 960.136 889.725 960.176 C 894.357 963.099 892.837 961.467 895.39 966.442 L 894.534 966.818 C 891.196 966.073 890.45 967.393 885.428 965.954 C 882.373 962.683 883.174 964.546 882.755 960.249 z"/>
<path transform="translate(0,0)" fill="rgb(240,242,236)" d="M 414.695 573.465 C 414.315 581.45 407.019 601.155 404.382 609.82 L 382.951 681.785 C 376.567 703.245 366.942 729.025 364.917 751.262 C 363.56 766.164 374.782 777.842 385.173 787.116 L 384.989 788.03 C 379.798 785.978 373.05 779.093 368.425 775.067 C 366.475 768.865 361.012 753.225 362.308 747.36 C 368.343 720.044 377.791 692.578 385.856 665.745 C 388.819 658.309 389.417 647.233 392.35 640.156 C 400.833 619.686 405.704 593.071 414.695 573.465 z"/>
<path transform="translate(0,0)" fill="rgb(240,242,236)" d="M 959.752 979.82 C 965.609 981.775 991.737 988.36 993.288 993.143 C 990.242 992.718 988.065 991.987 985.427 993.354 C 984.686 994.71 982.92 998.96 982.22 999.726 L 977.165 998.074 C 971.879 996.541 968.849 995.393 963.829 993.352 L 960.475 992.948 L 960.484 991.246 L 963.193 989.521 L 962.589 987.911 C 960.998 985.405 959.278 983.31 957.452 980.983 L 959.752 979.82 z"/>
<path transform="translate(0,0)" fill="rgb(214,231,193)" d="M 963.829 993.352 C 971.313 991.526 964.418 991.329 972.332 989.097 C 975.554 991.242 976.801 994.118 977.165 998.074 C 971.879 996.541 968.849 995.393 963.829 993.352 z"/>
<path transform="translate(0,0)" fill="rgb(241,207,219)" d="M 836.805 348.819 C 832.14 346.631 825.722 338.993 822.594 334.771 C 802.95 308.253 794.267 278.108 799.212 245.265 C 799.933 240.481 802.675 229.001 806.528 226.226 C 796.971 268.467 796.342 289.161 820.619 328.124 C 825.867 336.547 832.744 341.673 836.805 348.819 z"/>
<path transform="translate(0,0)" fill="rgb(241,207,219)" d="M 1041.89 245.948 C 1036.74 234.835 1032.72 225.009 1031.91 212.585 C 1030.79 195.457 1045.65 164.572 1065.18 164.855 L 1059.75 168.117 C 1034.99 182.7 1030.01 204.998 1038.29 231.202 C 1039.72 235.758 1041.84 241.252 1041.89 245.948 z"/>
<path transform="translate(0,0)" fill="rgb(240,242,236)" d="M 230.725 365.716 C 230.758 370.879 227.923 382.32 226.79 387.975 C 225.347 395.178 227.805 423.709 225.51 427.887 C 222.228 409.153 223.006 383.339 230.725 365.716 z"/>
<path transform="translate(0,0)" fill="rgb(240,242,236)" d="M 379.837 526.16 C 388.384 517.196 416.393 535.964 415.766 547.804 L 414.887 548.642 C 413.754 547.451 412.054 542.897 409.87 540.309 C 400.774 529.53 393.75 526.863 379.837 526.16 z"/>
</svg>